M48
; DRILL file {KiCad 9.0.0} date 2026-04-21T10:42:14-0400
; FORMAT={-:-/ absolute / metric / decimal}
; #@! TF.CreationDate,2026-04-21T10:42:14-04:00
; #@! TF.GenerationSoftware,Kicad,Pcbnew,9.0.0
; #@! TF.FileFunction,Plated,1,2,PTH
FMAT,2
METRIC
; #@! TA.AperFunction,Plated,PTH,ComponentDrill
T1C0.200
; #@! TA.AperFunction,Plated,PTH,ViaDrill
T2C0.300
; #@! TA.AperFunction,Plated,PTH,ComponentDrill
T3C0.600
; #@! TA.AperFunction,Plated,PTH,ComponentDrill
T4C0.750
; #@! TA.AperFunction,Plated,PTH,ComponentDrill
T5C0.950
; #@! TA.AperFunction,Plated,PTH,ComponentDrill
T6C1.000
%
G90
G05
T1
X146.171Y-70.499
X146.171Y-71.899
X146.871Y-69.799
X146.871Y-71.199
X146.871Y-72.599
X147.571Y-70.499
X147.571Y-71.899
X148.271Y-69.799
X148.271Y-71.199
X148.271Y-72.599
X148.971Y-70.499
X148.971Y-71.899
T2
X140.0Y-89.5
X141.0Y-108.0
X142.164Y-88.316
X143.027Y-98.908
X143.5Y-92.0
X144.297Y-104.496
X144.297Y-105.994
X144.704Y-88.087
X144.967Y-85.852
X146.177Y-96.317
X147.422Y-118.605
X149.0Y-102.0
X149.53Y-79.629
X150.139Y-82.88
X150.317Y-98.349
X150.759Y-79.823
X151.917Y-103.378
X154.534Y-79.207
X154.762Y-83.388
X155.5Y-95.5
X155.778Y-79.832
X156.538Y-84.212
X156.583Y-83.414
X157.404Y-105.943
X157.734Y-81.864
X159.49Y-88.845
X159.563Y-119.151
X160.065Y-87.709
X160.858Y-115.24
X162.789Y-108.255
T4
X139.487Y-131.637
X141.487Y-131.637
T5
X150.818Y-130.302
X153.318Y-130.302
X155.818Y-130.302
X158.318Y-130.302
X160.818Y-130.302
T6
X157.542Y-90.321
X157.542Y-92.861
X157.542Y-95.401
X160.082Y-90.321
X160.082Y-92.861
X160.082Y-95.401
T3
G00X137.699Y-86.382
M15
G01X136.399Y-86.382
M16
G05
G00X137.699Y-95.022
M15
G01X136.399Y-95.022
M16
G05
G00X141.374Y-86.382
M15
G01X140.374Y-86.382
M16
G05
G00X141.374Y-95.022
M15
G01X140.374Y-95.022
M16
G05
M30
