%TF.GenerationSoftware,KiCad,Pcbnew,9.0.0*%
%TF.CreationDate,2026-04-21T10:42:11-04:00*%
%TF.ProjectId,rev5,72657635-2e6b-4696-9361-645f70636258,rev?*%
%TF.SameCoordinates,Original*%
%TF.FileFunction,Soldermask,Top*%
%TF.FilePolarity,Negative*%
%FSLAX46Y46*%
G04 Gerber Fmt 4.6, Leading zero omitted, Abs format (unit mm)*
G04 Created by KiCad (PCBNEW 9.0.0) date 2026-04-21 10:42:11*
%MOMM*%
%LPD*%
G01*
G04 APERTURE LIST*
G04 Aperture macros list*
%AMRoundRect*
0 Rectangle with rounded corners*
0 $1 Rounding radius*
0 $2 $3 $4 $5 $6 $7 $8 $9 X,Y pos of 4 corners*
0 Add a 4 corners polygon primitive as box body*
4,1,4,$2,$3,$4,$5,$6,$7,$8,$9,$2,$3,0*
0 Add four circle primitives for the rounded corners*
1,1,$1+$1,$2,$3*
1,1,$1+$1,$4,$5*
1,1,$1+$1,$6,$7*
1,1,$1+$1,$8,$9*
0 Add four rect primitives between the rounded corners*
20,1,$1+$1,$2,$3,$4,$5,0*
20,1,$1+$1,$4,$5,$6,$7,0*
20,1,$1+$1,$6,$7,$8,$9,0*
20,1,$1+$1,$8,$9,$2,$3,0*%
G04 Aperture macros list end*
%ADD10RoundRect,0.250000X-0.350000X-0.625000X0.350000X-0.625000X0.350000X0.625000X-0.350000X0.625000X0*%
%ADD11O,1.200000X1.750000*%
%ADD12RoundRect,0.250000X-0.262500X-0.450000X0.262500X-0.450000X0.262500X0.450000X-0.262500X0.450000X0*%
%ADD13RoundRect,0.243750X0.456250X-0.243750X0.456250X0.243750X-0.456250X0.243750X-0.456250X-0.243750X0*%
%ADD14RoundRect,0.250000X-0.250000X-0.475000X0.250000X-0.475000X0.250000X0.475000X-0.250000X0.475000X0*%
%ADD15RoundRect,0.250000X0.450000X-0.350000X0.450000X0.350000X-0.450000X0.350000X-0.450000X-0.350000X0*%
%ADD16R,1.100000X1.800000*%
%ADD17RoundRect,0.250000X-0.450000X0.262500X-0.450000X-0.262500X0.450000X-0.262500X0.450000X0.262500X0*%
%ADD18RoundRect,0.150000X-0.150000X0.512500X-0.150000X-0.512500X0.150000X-0.512500X0.150000X0.512500X0*%
%ADD19RoundRect,0.250000X0.475000X-0.250000X0.475000X0.250000X-0.475000X0.250000X-0.475000X-0.250000X0*%
%ADD20R,1.500000X0.900000*%
%ADD21R,0.900000X1.500000*%
%ADD22C,0.600000*%
%ADD23R,3.900000X3.900000*%
%ADD24RoundRect,0.250000X-0.600000X-0.600000X0.600000X-0.600000X0.600000X0.600000X-0.600000X0.600000X0*%
%ADD25C,1.700000*%
%ADD26RoundRect,0.225000X-0.375000X0.225000X-0.375000X-0.225000X0.375000X-0.225000X0.375000X0.225000X0*%
%ADD27RoundRect,0.250000X-0.600000X-0.725000X0.600000X-0.725000X0.600000X0.725000X-0.600000X0.725000X0*%
%ADD28O,1.700000X1.950000*%
%ADD29RoundRect,0.250000X-0.450000X0.350000X-0.450000X-0.350000X0.450000X-0.350000X0.450000X0.350000X0*%
%ADD30RoundRect,0.087500X-0.225000X-0.087500X0.225000X-0.087500X0.225000X0.087500X-0.225000X0.087500X0*%
%ADD31RoundRect,0.087500X-0.087500X-0.225000X0.087500X-0.225000X0.087500X0.225000X-0.087500X0.225000X0*%
%ADD32R,2.000000X1.000000*%
%ADD33O,0.600000X0.850000*%
%ADD34R,1.000000X0.520000*%
%ADD35R,1.000000X0.270000*%
%ADD36O,2.300000X1.300000*%
%ADD37O,2.600000X1.300000*%
%ADD38RoundRect,0.250000X-0.475000X0.250000X-0.475000X-0.250000X0.475000X-0.250000X0.475000X0.250000X0*%
%ADD39RoundRect,0.375000X-0.375000X0.625000X-0.375000X-0.625000X0.375000X-0.625000X0.375000X0.625000X0*%
%ADD40RoundRect,0.500000X-1.400000X0.500000X-1.400000X-0.500000X1.400000X-0.500000X1.400000X0.500000X0*%
%ADD41RoundRect,0.225000X0.225000X0.375000X-0.225000X0.375000X-0.225000X-0.375000X0.225000X-0.375000X0*%
G04 APERTURE END LIST*
D10*
%TO.C,J5*%
X139487400Y-131636600D03*
D11*
X141487400Y-131636600D03*
%TD*%
D12*
%TO.C,R7*%
X144426300Y-92379800D03*
X146251300Y-92379800D03*
%TD*%
D13*
%TO.C,D1*%
X157440600Y-113460600D03*
X157440600Y-111585600D03*
%TD*%
D14*
%TO.C,C7*%
X141547100Y-117017800D03*
X143447100Y-117017800D03*
%TD*%
D15*
%TO.C,R3*%
X142214600Y-105368600D03*
X142214600Y-103368600D03*
%TD*%
D16*
%TO.C,SW2*%
X139717000Y-107974200D03*
X139717000Y-114174200D03*
X136017000Y-107974200D03*
X136017000Y-114174200D03*
%TD*%
D17*
%TO.C,R2*%
X160996600Y-107114400D03*
X160996600Y-108939400D03*
%TD*%
D18*
%TO.C,U3*%
X145871100Y-84739900D03*
X144921100Y-84739900D03*
X143971100Y-84739900D03*
X143971100Y-87014900D03*
X144921100Y-87014900D03*
X145871100Y-87014900D03*
%TD*%
D19*
%TO.C,C6*%
X149134800Y-106932800D03*
X149134800Y-105032800D03*
%TD*%
D20*
%TO.C,U1*%
X140321000Y-63479200D03*
X140321000Y-64749200D03*
X140321000Y-66019200D03*
X140321000Y-67289200D03*
X140321000Y-68559200D03*
X140321000Y-69829200D03*
X140321000Y-71099200D03*
X140321000Y-72369200D03*
X140321000Y-73639200D03*
X140321000Y-74909200D03*
X140321000Y-76179200D03*
X140321000Y-77449200D03*
X140321000Y-78719200D03*
X140321000Y-79989200D03*
D21*
X142086000Y-81239200D03*
X143356000Y-81239200D03*
X144626000Y-81239200D03*
X145896000Y-81239200D03*
X147166000Y-81239200D03*
X148436000Y-81239200D03*
X149706000Y-81239200D03*
X150976000Y-81239200D03*
X152246000Y-81239200D03*
X153516000Y-81239200D03*
X154786000Y-81239200D03*
X156056000Y-81239200D03*
D20*
X157821000Y-79989200D03*
X157821000Y-78719200D03*
X157821000Y-77449200D03*
X157821000Y-76179200D03*
X157821000Y-74909200D03*
X157821000Y-73639200D03*
X157821000Y-72369200D03*
X157821000Y-71099200D03*
X157821000Y-69829200D03*
X157821000Y-68559200D03*
X157821000Y-67289200D03*
X157821000Y-66019200D03*
X157821000Y-64749200D03*
X157821000Y-63479200D03*
D22*
X146171000Y-70499200D03*
X146171000Y-71899200D03*
X146871000Y-69799200D03*
X146871000Y-71199200D03*
X146871000Y-72599200D03*
X147571000Y-70499200D03*
D23*
X147571000Y-71199200D03*
D22*
X147571000Y-71899200D03*
X148271000Y-69799200D03*
X148271000Y-71199200D03*
X148271000Y-72599200D03*
X148971000Y-70499200D03*
X148971000Y-71899200D03*
%TD*%
D19*
%TO.C,C2*%
X137845800Y-67259200D03*
X137845800Y-65359200D03*
%TD*%
D24*
%TO.C,J3*%
X157542200Y-90321200D03*
D25*
X160082200Y-90321200D03*
X157542200Y-92861200D03*
X160082200Y-92861200D03*
X157542200Y-95401200D03*
X160082200Y-95401200D03*
%TD*%
D19*
%TO.C,C1*%
X135509000Y-67244000D03*
X135509000Y-65344000D03*
%TD*%
D26*
%TO.C,D4*%
X143207100Y-119229800D03*
X143207100Y-122529800D03*
%TD*%
D27*
%TO.C,J4*%
X150818200Y-130302000D03*
D28*
X153318200Y-130302000D03*
X155818200Y-130302000D03*
X158318200Y-130302000D03*
X160818200Y-130302000D03*
%TD*%
D29*
%TO.C,R6*%
X142286600Y-112461800D03*
X142286600Y-114461800D03*
%TD*%
D30*
%TO.C,IMU*%
X147913600Y-101246900D03*
X147913600Y-101746900D03*
X147913600Y-102246900D03*
X147913600Y-102746900D03*
D31*
X148576100Y-102909400D03*
X149076100Y-102909400D03*
X149576100Y-102909400D03*
D30*
X150238600Y-102746900D03*
X150238600Y-102246900D03*
X150238600Y-101746900D03*
X150238600Y-101246900D03*
D31*
X149576100Y-101084400D03*
X149076100Y-101084400D03*
X148576100Y-101084400D03*
%TD*%
D22*
%TO.C,J6*%
X140149400Y-87702200D03*
D32*
X137049400Y-89302200D03*
X137049400Y-92102200D03*
D33*
X140149400Y-93702200D03*
D34*
X141249400Y-87602200D03*
X141249400Y-88352200D03*
D35*
X141249400Y-88952200D03*
X141249400Y-90452200D03*
X141249400Y-91452200D03*
X141249400Y-92452200D03*
D34*
X141249400Y-93052200D03*
X141249400Y-93802200D03*
X141249400Y-93802200D03*
X141249400Y-93052200D03*
D35*
X141249400Y-91952200D03*
X141249400Y-90952200D03*
X141249400Y-89952200D03*
X141249400Y-89452200D03*
D34*
X141249400Y-88352200D03*
X141249400Y-87602200D03*
D36*
X140874400Y-86382200D03*
D37*
X137049400Y-86382200D03*
D36*
X140874400Y-95022200D03*
D37*
X137049400Y-95022200D03*
%TD*%
D17*
%TO.C,R8*%
X144602200Y-94591500D03*
X144602200Y-96416500D03*
%TD*%
D19*
%TO.C,C5*%
X154459300Y-118629400D03*
X154459300Y-116729400D03*
%TD*%
D38*
%TO.C,C3*%
X135483600Y-69281000D03*
X135483600Y-71181000D03*
%TD*%
D19*
%TO.C,C4*%
X146366200Y-106932800D03*
X146366200Y-105032800D03*
%TD*%
D39*
%TO.C,U2*%
X151182700Y-117195200D03*
X148882700Y-117195200D03*
D40*
X148882700Y-123495200D03*
D39*
X146582700Y-117195200D03*
%TD*%
D41*
%TO.C,D3*%
X151638900Y-113996400D03*
X148338900Y-113996400D03*
%TD*%
D16*
%TO.C,SW1*%
X139721200Y-98881000D03*
X139721200Y-105081000D03*
X136021200Y-98881000D03*
X136021200Y-105081000D03*
%TD*%
D13*
%TO.C,D2*%
X160971200Y-113411000D03*
X160971200Y-111536000D03*
%TD*%
D17*
%TO.C,R1*%
X157415200Y-107186800D03*
X157415200Y-109011800D03*
%TD*%
D19*
%TO.C,C8*%
X151903400Y-106897200D03*
X151903400Y-104997200D03*
%TD*%
M02*
