%TF.GenerationSoftware,KiCad,Pcbnew,9.0.0*%
%TF.CreationDate,2026-04-21T10:42:11-04:00*%
%TF.ProjectId,rev5,72657635-2e6b-4696-9361-645f70636258,rev?*%
%TF.SameCoordinates,Original*%
%TF.FileFunction,Legend,Bot*%
%TF.FilePolarity,Positive*%
%FSLAX46Y46*%
G04 Gerber Fmt 4.6, Leading zero omitted, Abs format (unit mm)*
G04 Created by KiCad (PCBNEW 9.0.0) date 2026-04-21 10:42:11*
%MOMM*%
%LPD*%
G01*
G04 APERTURE LIST*
%ADD10C,0.100000*%
%ADD11C,0.200000*%
G04 APERTURE END LIST*
D10*
X155953734Y-89317647D02*
X155687068Y-89317647D01*
X155572782Y-89736695D02*
X155953734Y-89736695D01*
X155953734Y-89736695D02*
X155953734Y-88936695D01*
X155953734Y-88936695D02*
X155572782Y-88936695D01*
X155229924Y-89736695D02*
X155229924Y-88936695D01*
X155229924Y-88936695D02*
X154772781Y-89736695D01*
X154772781Y-89736695D02*
X154772781Y-88936695D01*
D11*
X153887707Y-65069942D02*
X153887707Y-63869942D01*
X153887707Y-63869942D02*
X153430564Y-63869942D01*
X153430564Y-63869942D02*
X153316279Y-63927085D01*
X153316279Y-63927085D02*
X153259136Y-63984228D01*
X153259136Y-63984228D02*
X153201993Y-64098514D01*
X153201993Y-64098514D02*
X153201993Y-64269942D01*
X153201993Y-64269942D02*
X153259136Y-64384228D01*
X153259136Y-64384228D02*
X153316279Y-64441371D01*
X153316279Y-64441371D02*
X153430564Y-64498514D01*
X153430564Y-64498514D02*
X153887707Y-64498514D01*
X152516279Y-65069942D02*
X152630564Y-65012800D01*
X152630564Y-65012800D02*
X152687707Y-64955657D01*
X152687707Y-64955657D02*
X152744850Y-64841371D01*
X152744850Y-64841371D02*
X152744850Y-64498514D01*
X152744850Y-64498514D02*
X152687707Y-64384228D01*
X152687707Y-64384228D02*
X152630564Y-64327085D01*
X152630564Y-64327085D02*
X152516279Y-64269942D01*
X152516279Y-64269942D02*
X152344850Y-64269942D01*
X152344850Y-64269942D02*
X152230564Y-64327085D01*
X152230564Y-64327085D02*
X152173422Y-64384228D01*
X152173422Y-64384228D02*
X152116279Y-64498514D01*
X152116279Y-64498514D02*
X152116279Y-64841371D01*
X152116279Y-64841371D02*
X152173422Y-64955657D01*
X152173422Y-64955657D02*
X152230564Y-65012800D01*
X152230564Y-65012800D02*
X152344850Y-65069942D01*
X152344850Y-65069942D02*
X152516279Y-65069942D01*
X151716279Y-64269942D02*
X151487708Y-65069942D01*
X151487708Y-65069942D02*
X151259136Y-64498514D01*
X151259136Y-64498514D02*
X151030565Y-65069942D01*
X151030565Y-65069942D02*
X150801993Y-64269942D01*
X149887707Y-65012800D02*
X150001993Y-65069942D01*
X150001993Y-65069942D02*
X150230565Y-65069942D01*
X150230565Y-65069942D02*
X150344850Y-65012800D01*
X150344850Y-65012800D02*
X150401993Y-64898514D01*
X150401993Y-64898514D02*
X150401993Y-64441371D01*
X150401993Y-64441371D02*
X150344850Y-64327085D01*
X150344850Y-64327085D02*
X150230565Y-64269942D01*
X150230565Y-64269942D02*
X150001993Y-64269942D01*
X150001993Y-64269942D02*
X149887707Y-64327085D01*
X149887707Y-64327085D02*
X149830565Y-64441371D01*
X149830565Y-64441371D02*
X149830565Y-64555657D01*
X149830565Y-64555657D02*
X150401993Y-64669942D01*
X149316279Y-65069942D02*
X149316279Y-64269942D01*
X149316279Y-64498514D02*
X149259136Y-64384228D01*
X149259136Y-64384228D02*
X149201994Y-64327085D01*
X149201994Y-64327085D02*
X149087708Y-64269942D01*
X149087708Y-64269942D02*
X148973422Y-64269942D01*
X146973422Y-65069942D02*
X147373422Y-64498514D01*
X147659136Y-65069942D02*
X147659136Y-63869942D01*
X147659136Y-63869942D02*
X147201993Y-63869942D01*
X147201993Y-63869942D02*
X147087708Y-63927085D01*
X147087708Y-63927085D02*
X147030565Y-63984228D01*
X147030565Y-63984228D02*
X146973422Y-64098514D01*
X146973422Y-64098514D02*
X146973422Y-64269942D01*
X146973422Y-64269942D02*
X147030565Y-64384228D01*
X147030565Y-64384228D02*
X147087708Y-64441371D01*
X147087708Y-64441371D02*
X147201993Y-64498514D01*
X147201993Y-64498514D02*
X147659136Y-64498514D01*
X146459136Y-64441371D02*
X146059136Y-64441371D01*
X145887708Y-65069942D02*
X146459136Y-65069942D01*
X146459136Y-65069942D02*
X146459136Y-63869942D01*
X146459136Y-63869942D02*
X145887708Y-63869942D01*
X145544851Y-63869942D02*
X145144851Y-65069942D01*
X145144851Y-65069942D02*
X144744851Y-63869942D01*
X143773423Y-63869942D02*
X144344851Y-63869942D01*
X144344851Y-63869942D02*
X144401994Y-64441371D01*
X144401994Y-64441371D02*
X144344851Y-64384228D01*
X144344851Y-64384228D02*
X144230566Y-64327085D01*
X144230566Y-64327085D02*
X143944851Y-64327085D01*
X143944851Y-64327085D02*
X143830566Y-64384228D01*
X143830566Y-64384228D02*
X143773423Y-64441371D01*
X143773423Y-64441371D02*
X143716280Y-64555657D01*
X143716280Y-64555657D02*
X143716280Y-64841371D01*
X143716280Y-64841371D02*
X143773423Y-64955657D01*
X143773423Y-64955657D02*
X143830566Y-65012800D01*
X143830566Y-65012800D02*
X143944851Y-65069942D01*
X143944851Y-65069942D02*
X144230566Y-65069942D01*
X144230566Y-65069942D02*
X144344851Y-65012800D01*
X144344851Y-65012800D02*
X144401994Y-64955657D01*
D10*
X162646668Y-97064647D02*
X162532382Y-97102742D01*
X162532382Y-97102742D02*
X162494287Y-97140838D01*
X162494287Y-97140838D02*
X162456191Y-97217028D01*
X162456191Y-97217028D02*
X162456191Y-97331314D01*
X162456191Y-97331314D02*
X162494287Y-97407504D01*
X162494287Y-97407504D02*
X162532382Y-97445600D01*
X162532382Y-97445600D02*
X162608572Y-97483695D01*
X162608572Y-97483695D02*
X162913334Y-97483695D01*
X162913334Y-97483695D02*
X162913334Y-96683695D01*
X162913334Y-96683695D02*
X162646668Y-96683695D01*
X162646668Y-96683695D02*
X162570477Y-96721790D01*
X162570477Y-96721790D02*
X162532382Y-96759885D01*
X162532382Y-96759885D02*
X162494287Y-96836076D01*
X162494287Y-96836076D02*
X162494287Y-96912266D01*
X162494287Y-96912266D02*
X162532382Y-96988457D01*
X162532382Y-96988457D02*
X162570477Y-97026552D01*
X162570477Y-97026552D02*
X162646668Y-97064647D01*
X162646668Y-97064647D02*
X162913334Y-97064647D01*
X161960953Y-96683695D02*
X161808572Y-96683695D01*
X161808572Y-96683695D02*
X161732382Y-96721790D01*
X161732382Y-96721790D02*
X161656191Y-96797980D01*
X161656191Y-96797980D02*
X161618096Y-96950361D01*
X161618096Y-96950361D02*
X161618096Y-97217028D01*
X161618096Y-97217028D02*
X161656191Y-97369409D01*
X161656191Y-97369409D02*
X161732382Y-97445600D01*
X161732382Y-97445600D02*
X161808572Y-97483695D01*
X161808572Y-97483695D02*
X161960953Y-97483695D01*
X161960953Y-97483695D02*
X162037144Y-97445600D01*
X162037144Y-97445600D02*
X162113334Y-97369409D01*
X162113334Y-97369409D02*
X162151430Y-97217028D01*
X162151430Y-97217028D02*
X162151430Y-96950361D01*
X162151430Y-96950361D02*
X162113334Y-96797980D01*
X162113334Y-96797980D02*
X162037144Y-96721790D01*
X162037144Y-96721790D02*
X161960953Y-96683695D01*
X161122858Y-96683695D02*
X160970477Y-96683695D01*
X160970477Y-96683695D02*
X160894287Y-96721790D01*
X160894287Y-96721790D02*
X160818096Y-96797980D01*
X160818096Y-96797980D02*
X160780001Y-96950361D01*
X160780001Y-96950361D02*
X160780001Y-97217028D01*
X160780001Y-97217028D02*
X160818096Y-97369409D01*
X160818096Y-97369409D02*
X160894287Y-97445600D01*
X160894287Y-97445600D02*
X160970477Y-97483695D01*
X160970477Y-97483695D02*
X161122858Y-97483695D01*
X161122858Y-97483695D02*
X161199049Y-97445600D01*
X161199049Y-97445600D02*
X161275239Y-97369409D01*
X161275239Y-97369409D02*
X161313335Y-97217028D01*
X161313335Y-97217028D02*
X161313335Y-96950361D01*
X161313335Y-96950361D02*
X161275239Y-96797980D01*
X161275239Y-96797980D02*
X161199049Y-96721790D01*
X161199049Y-96721790D02*
X161122858Y-96683695D01*
X160551430Y-96683695D02*
X160094287Y-96683695D01*
X160322859Y-97483695D02*
X160322859Y-96683695D01*
X162824487Y-92530790D02*
X162900677Y-92492695D01*
X162900677Y-92492695D02*
X163014963Y-92492695D01*
X163014963Y-92492695D02*
X163129249Y-92530790D01*
X163129249Y-92530790D02*
X163205439Y-92606980D01*
X163205439Y-92606980D02*
X163243534Y-92683171D01*
X163243534Y-92683171D02*
X163281630Y-92835552D01*
X163281630Y-92835552D02*
X163281630Y-92949838D01*
X163281630Y-92949838D02*
X163243534Y-93102219D01*
X163243534Y-93102219D02*
X163205439Y-93178409D01*
X163205439Y-93178409D02*
X163129249Y-93254600D01*
X163129249Y-93254600D02*
X163014963Y-93292695D01*
X163014963Y-93292695D02*
X162938772Y-93292695D01*
X162938772Y-93292695D02*
X162824487Y-93254600D01*
X162824487Y-93254600D02*
X162786391Y-93216504D01*
X162786391Y-93216504D02*
X162786391Y-92949838D01*
X162786391Y-92949838D02*
X162938772Y-92949838D01*
X162443534Y-93292695D02*
X162443534Y-92492695D01*
X162443534Y-92492695D02*
X161986391Y-93292695D01*
X161986391Y-93292695D02*
X161986391Y-92492695D01*
X161605439Y-93292695D02*
X161605439Y-92492695D01*
X161605439Y-92492695D02*
X161414963Y-92492695D01*
X161414963Y-92492695D02*
X161300677Y-92530790D01*
X161300677Y-92530790D02*
X161224487Y-92606980D01*
X161224487Y-92606980D02*
X161186392Y-92683171D01*
X161186392Y-92683171D02*
X161148296Y-92835552D01*
X161148296Y-92835552D02*
X161148296Y-92949838D01*
X161148296Y-92949838D02*
X161186392Y-93102219D01*
X161186392Y-93102219D02*
X161224487Y-93178409D01*
X161224487Y-93178409D02*
X161300677Y-93254600D01*
X161300677Y-93254600D02*
X161414963Y-93292695D01*
X161414963Y-93292695D02*
X161605439Y-93292695D01*
X155991820Y-92137095D02*
X155534677Y-92137095D01*
X155763249Y-92937095D02*
X155763249Y-92137095D01*
X155344201Y-92137095D02*
X154810867Y-92937095D01*
X154810867Y-92137095D02*
X155344201Y-92937095D01*
X155445791Y-97178895D02*
X155712458Y-96797942D01*
X155902934Y-97178895D02*
X155902934Y-96378895D01*
X155902934Y-96378895D02*
X155598172Y-96378895D01*
X155598172Y-96378895D02*
X155521982Y-96416990D01*
X155521982Y-96416990D02*
X155483887Y-96455085D01*
X155483887Y-96455085D02*
X155445791Y-96531276D01*
X155445791Y-96531276D02*
X155445791Y-96645561D01*
X155445791Y-96645561D02*
X155483887Y-96721752D01*
X155483887Y-96721752D02*
X155521982Y-96759847D01*
X155521982Y-96759847D02*
X155598172Y-96797942D01*
X155598172Y-96797942D02*
X155902934Y-96797942D01*
X155179125Y-96378895D02*
X154645791Y-97178895D01*
X154645791Y-96378895D02*
X155179125Y-97178895D01*
X163192725Y-88657295D02*
X162697487Y-88657295D01*
X162697487Y-88657295D02*
X162964153Y-88962057D01*
X162964153Y-88962057D02*
X162849868Y-88962057D01*
X162849868Y-88962057D02*
X162773677Y-89000152D01*
X162773677Y-89000152D02*
X162735582Y-89038247D01*
X162735582Y-89038247D02*
X162697487Y-89114438D01*
X162697487Y-89114438D02*
X162697487Y-89304914D01*
X162697487Y-89304914D02*
X162735582Y-89381104D01*
X162735582Y-89381104D02*
X162773677Y-89419200D01*
X162773677Y-89419200D02*
X162849868Y-89457295D01*
X162849868Y-89457295D02*
X163078439Y-89457295D01*
X163078439Y-89457295D02*
X163154630Y-89419200D01*
X163154630Y-89419200D02*
X163192725Y-89381104D01*
X162354629Y-89381104D02*
X162316534Y-89419200D01*
X162316534Y-89419200D02*
X162354629Y-89457295D01*
X162354629Y-89457295D02*
X162392725Y-89419200D01*
X162392725Y-89419200D02*
X162354629Y-89381104D01*
X162354629Y-89381104D02*
X162354629Y-89457295D01*
X162049868Y-88657295D02*
X161554630Y-88657295D01*
X161554630Y-88657295D02*
X161821296Y-88962057D01*
X161821296Y-88962057D02*
X161707011Y-88962057D01*
X161707011Y-88962057D02*
X161630820Y-89000152D01*
X161630820Y-89000152D02*
X161592725Y-89038247D01*
X161592725Y-89038247D02*
X161554630Y-89114438D01*
X161554630Y-89114438D02*
X161554630Y-89304914D01*
X161554630Y-89304914D02*
X161592725Y-89381104D01*
X161592725Y-89381104D02*
X161630820Y-89419200D01*
X161630820Y-89419200D02*
X161707011Y-89457295D01*
X161707011Y-89457295D02*
X161935582Y-89457295D01*
X161935582Y-89457295D02*
X162011773Y-89419200D01*
X162011773Y-89419200D02*
X162049868Y-89381104D01*
X161326058Y-88657295D02*
X161059391Y-89457295D01*
X161059391Y-89457295D02*
X160792725Y-88657295D01*
M02*
