%TF.GenerationSoftware,KiCad,Pcbnew,9.0.0*%
%TF.CreationDate,2026-04-21T10:42:11-04:00*%
%TF.ProjectId,rev5,72657635-2e6b-4696-9361-645f70636258,rev?*%
%TF.SameCoordinates,Original*%
%TF.FileFunction,Copper,L1,Top*%
%TF.FilePolarity,Positive*%
%FSLAX46Y46*%
G04 Gerber Fmt 4.6, Leading zero omitted, Abs format (unit mm)*
G04 Created by KiCad (PCBNEW 9.0.0) date 2026-04-21 10:42:11*
%MOMM*%
%LPD*%
G01*
G04 APERTURE LIST*
G04 Aperture macros list*
%AMRoundRect*
0 Rectangle with rounded corners*
0 $1 Rounding radius*
0 $2 $3 $4 $5 $6 $7 $8 $9 X,Y pos of 4 corners*
0 Add a 4 corners polygon primitive as box body*
4,1,4,$2,$3,$4,$5,$6,$7,$8,$9,$2,$3,0*
0 Add four circle primitives for the rounded corners*
1,1,$1+$1,$2,$3*
1,1,$1+$1,$4,$5*
1,1,$1+$1,$6,$7*
1,1,$1+$1,$8,$9*
0 Add four rect primitives between the rounded corners*
20,1,$1+$1,$2,$3,$4,$5,0*
20,1,$1+$1,$4,$5,$6,$7,0*
20,1,$1+$1,$6,$7,$8,$9,0*
20,1,$1+$1,$8,$9,$2,$3,0*%
G04 Aperture macros list end*
%TA.AperFunction,ComponentPad*%
%ADD10RoundRect,0.250000X-0.350000X-0.625000X0.350000X-0.625000X0.350000X0.625000X-0.350000X0.625000X0*%
%TD*%
%TA.AperFunction,ComponentPad*%
%ADD11O,1.200000X1.750000*%
%TD*%
%TA.AperFunction,SMDPad,CuDef*%
%ADD12RoundRect,0.250000X-0.262500X-0.450000X0.262500X-0.450000X0.262500X0.450000X-0.262500X0.450000X0*%
%TD*%
%TA.AperFunction,SMDPad,CuDef*%
%ADD13RoundRect,0.243750X0.456250X-0.243750X0.456250X0.243750X-0.456250X0.243750X-0.456250X-0.243750X0*%
%TD*%
%TA.AperFunction,SMDPad,CuDef*%
%ADD14RoundRect,0.250000X-0.250000X-0.475000X0.250000X-0.475000X0.250000X0.475000X-0.250000X0.475000X0*%
%TD*%
%TA.AperFunction,SMDPad,CuDef*%
%ADD15RoundRect,0.250000X0.450000X-0.350000X0.450000X0.350000X-0.450000X0.350000X-0.450000X-0.350000X0*%
%TD*%
%TA.AperFunction,SMDPad,CuDef*%
%ADD16R,1.100000X1.800000*%
%TD*%
%TA.AperFunction,SMDPad,CuDef*%
%ADD17RoundRect,0.250000X-0.450000X0.262500X-0.450000X-0.262500X0.450000X-0.262500X0.450000X0.262500X0*%
%TD*%
%TA.AperFunction,SMDPad,CuDef*%
%ADD18RoundRect,0.150000X-0.150000X0.512500X-0.150000X-0.512500X0.150000X-0.512500X0.150000X0.512500X0*%
%TD*%
%TA.AperFunction,SMDPad,CuDef*%
%ADD19RoundRect,0.250000X0.475000X-0.250000X0.475000X0.250000X-0.475000X0.250000X-0.475000X-0.250000X0*%
%TD*%
%TA.AperFunction,SMDPad,CuDef*%
%ADD20R,1.500000X0.900000*%
%TD*%
%TA.AperFunction,SMDPad,CuDef*%
%ADD21R,0.900000X1.500000*%
%TD*%
%TA.AperFunction,HeatsinkPad*%
%ADD22C,0.600000*%
%TD*%
%TA.AperFunction,HeatsinkPad*%
%ADD23R,3.900000X3.900000*%
%TD*%
%TA.AperFunction,ComponentPad*%
%ADD24RoundRect,0.250000X-0.600000X-0.600000X0.600000X-0.600000X0.600000X0.600000X-0.600000X0.600000X0*%
%TD*%
%TA.AperFunction,ComponentPad*%
%ADD25C,1.700000*%
%TD*%
%TA.AperFunction,SMDPad,CuDef*%
%ADD26RoundRect,0.225000X-0.375000X0.225000X-0.375000X-0.225000X0.375000X-0.225000X0.375000X0.225000X0*%
%TD*%
%TA.AperFunction,ComponentPad*%
%ADD27RoundRect,0.250000X-0.600000X-0.725000X0.600000X-0.725000X0.600000X0.725000X-0.600000X0.725000X0*%
%TD*%
%TA.AperFunction,ComponentPad*%
%ADD28O,1.700000X1.950000*%
%TD*%
%TA.AperFunction,SMDPad,CuDef*%
%ADD29RoundRect,0.250000X-0.450000X0.350000X-0.450000X-0.350000X0.450000X-0.350000X0.450000X0.350000X0*%
%TD*%
%TA.AperFunction,SMDPad,CuDef*%
%ADD30RoundRect,0.087500X-0.225000X-0.087500X0.225000X-0.087500X0.225000X0.087500X-0.225000X0.087500X0*%
%TD*%
%TA.AperFunction,SMDPad,CuDef*%
%ADD31RoundRect,0.087500X-0.087500X-0.225000X0.087500X-0.225000X0.087500X0.225000X-0.087500X0.225000X0*%
%TD*%
%TA.AperFunction,SMDPad,CuDef*%
%ADD32R,2.000000X1.000000*%
%TD*%
%TA.AperFunction,SMDPad,CuDef*%
%ADD33R,1.000000X0.520000*%
%TD*%
%TA.AperFunction,SMDPad,CuDef*%
%ADD34R,1.000000X0.270000*%
%TD*%
%TA.AperFunction,HeatsinkPad*%
%ADD35O,2.300000X1.300000*%
%TD*%
%TA.AperFunction,HeatsinkPad*%
%ADD36O,2.600000X1.300000*%
%TD*%
%TA.AperFunction,SMDPad,CuDef*%
%ADD37RoundRect,0.250000X-0.475000X0.250000X-0.475000X-0.250000X0.475000X-0.250000X0.475000X0.250000X0*%
%TD*%
%TA.AperFunction,SMDPad,CuDef*%
%ADD38RoundRect,0.375000X-0.375000X0.625000X-0.375000X-0.625000X0.375000X-0.625000X0.375000X0.625000X0*%
%TD*%
%TA.AperFunction,SMDPad,CuDef*%
%ADD39RoundRect,0.500000X-1.400000X0.500000X-1.400000X-0.500000X1.400000X-0.500000X1.400000X0.500000X0*%
%TD*%
%TA.AperFunction,SMDPad,CuDef*%
%ADD40RoundRect,0.225000X0.225000X0.375000X-0.225000X0.375000X-0.225000X-0.375000X0.225000X-0.375000X0*%
%TD*%
%TA.AperFunction,ViaPad*%
%ADD41C,0.600000*%
%TD*%
%TA.AperFunction,Conductor*%
%ADD42C,0.250000*%
%TD*%
%TA.AperFunction,Conductor*%
%ADD43C,0.150000*%
%TD*%
G04 APERTURE END LIST*
D10*
%TO.P,J5,1,Pin_1*%
%TO.N,+3.7V_BATT*%
X139487400Y-131636600D03*
D11*
%TO.P,J5,2,Pin_2*%
%TO.N,GND*%
X141487400Y-131636600D03*
%TD*%
D12*
%TO.P,R7,1*%
%TO.N,Net-(J6-CC1)*%
X144426300Y-92379800D03*
%TO.P,R7,2*%
%TO.N,GND*%
X146251300Y-92379800D03*
%TD*%
D13*
%TO.P,D1,1,K*%
%TO.N,GND*%
X157440600Y-113460600D03*
%TO.P,D1,2,A*%
%TO.N,Net-(D1-A)*%
X157440600Y-111585600D03*
%TD*%
D14*
%TO.P,C7,1*%
%TO.N,GND*%
X141547100Y-117017800D03*
%TO.P,C7,2*%
%TO.N,+3.3V*%
X143447100Y-117017800D03*
%TD*%
D15*
%TO.P,R3,1*%
%TO.N,+3.3V*%
X142214600Y-105368600D03*
%TO.P,R3,2*%
%TO.N,/EN*%
X142214600Y-103368600D03*
%TD*%
D16*
%TO.P,SW2,1,1*%
%TO.N,/BOOT*%
X139717000Y-107974200D03*
X139717000Y-114174200D03*
%TO.P,SW2,2,2*%
%TO.N,GND*%
X136017000Y-107974200D03*
X136017000Y-114174200D03*
%TD*%
D17*
%TO.P,R2,1*%
%TO.N,+3.3V*%
X160996600Y-107114400D03*
%TO.P,R2,2*%
%TO.N,Net-(D2-A)*%
X160996600Y-108939400D03*
%TD*%
D18*
%TO.P,U3,1,I/O1*%
%TO.N,/D+*%
X145871100Y-84739900D03*
%TO.P,U3,2,GND*%
%TO.N,GND*%
X144921100Y-84739900D03*
%TO.P,U3,3,I/O2*%
%TO.N,/D-*%
X143971100Y-84739900D03*
%TO.P,U3,4,I/O2*%
X143971100Y-87014900D03*
%TO.P,U3,5,VBUS*%
%TO.N,+5V_USB*%
X144921100Y-87014900D03*
%TO.P,U3,6,I/O1*%
%TO.N,/D+*%
X145871100Y-87014900D03*
%TD*%
D19*
%TO.P,C6,1*%
%TO.N,GND*%
X149134800Y-106932800D03*
%TO.P,C6,2*%
%TO.N,+3.3V*%
X149134800Y-105032800D03*
%TD*%
D20*
%TO.P,U1,1,GND*%
%TO.N,GND*%
X140321000Y-63479200D03*
%TO.P,U1,2,3V3*%
%TO.N,+3.3V*%
X140321000Y-64749200D03*
%TO.P,U1,3,EN*%
%TO.N,/EN*%
X140321000Y-66019200D03*
%TO.P,U1,4,IO4*%
%TO.N,/LED*%
X140321000Y-67289200D03*
%TO.P,U1,5,IO5*%
%TO.N,unconnected-(U1-IO5-Pad5)*%
X140321000Y-68559200D03*
%TO.P,U1,6,IO6*%
%TO.N,unconnected-(U1-IO6-Pad6)*%
X140321000Y-69829200D03*
%TO.P,U1,7,IO7*%
%TO.N,unconnected-(U1-IO7-Pad7)*%
X140321000Y-71099200D03*
%TO.P,U1,8,IO15*%
%TO.N,unconnected-(U1-IO15-Pad8)*%
X140321000Y-72369200D03*
%TO.P,U1,9,IO16*%
%TO.N,unconnected-(U1-IO16-Pad9)*%
X140321000Y-73639200D03*
%TO.P,U1,10,IO17*%
%TO.N,unconnected-(U1-IO17-Pad10)*%
X140321000Y-74909200D03*
%TO.P,U1,11,IO18*%
%TO.N,unconnected-(U1-IO18-Pad11)*%
X140321000Y-76179200D03*
%TO.P,U1,12,IO8*%
%TO.N,unconnected-(U1-IO8-Pad12)*%
X140321000Y-77449200D03*
%TO.P,U1,13,IO19*%
%TO.N,/D-*%
X140321000Y-78719200D03*
%TO.P,U1,14,IO20*%
%TO.N,/D+*%
X140321000Y-79989200D03*
D21*
%TO.P,U1,15,IO3*%
%TO.N,unconnected-(U1-IO3-Pad15)*%
X142086000Y-81239200D03*
%TO.P,U1,16,IO46*%
%TO.N,unconnected-(U1-IO46-Pad16)*%
X143356000Y-81239200D03*
%TO.P,U1,17,IO9*%
%TO.N,unconnected-(U1-IO9-Pad17)*%
X144626000Y-81239200D03*
%TO.P,U1,18,IO10*%
%TO.N,unconnected-(U1-IO10-Pad18)*%
X145896000Y-81239200D03*
%TO.P,U1,19,IO11*%
%TO.N,/INT1 Gyro*%
X147166000Y-81239200D03*
%TO.P,U1,20,IO12*%
%TO.N,/MISO*%
X148436000Y-81239200D03*
%TO.P,U1,21,IO13*%
%TO.N,/MOSI*%
X149706000Y-81239200D03*
%TO.P,U1,22,IO14*%
%TO.N,/SCLK*%
X150976000Y-81239200D03*
%TO.P,U1,23,IO21*%
%TO.N,/CS Gyro*%
X152246000Y-81239200D03*
%TO.P,U1,24,IO47*%
%TO.N,/INT2 Gyro*%
X153516000Y-81239200D03*
%TO.P,U1,25,IO48*%
%TO.N,/HX711 PDSCK*%
X154786000Y-81239200D03*
%TO.P,U1,26,IO45*%
%TO.N,/HX711 DOUT*%
X156056000Y-81239200D03*
D20*
%TO.P,U1,27,IO0*%
%TO.N,/BOOT*%
X157821000Y-79989200D03*
%TO.P,U1,28,IO35*%
%TO.N,unconnected-(U1-IO35-Pad28)*%
X157821000Y-78719200D03*
%TO.P,U1,29,IO36*%
%TO.N,unconnected-(U1-IO36-Pad29)*%
X157821000Y-77449200D03*
%TO.P,U1,30,IO37*%
%TO.N,unconnected-(U1-IO37-Pad30)*%
X157821000Y-76179200D03*
%TO.P,U1,31,IO38*%
%TO.N,unconnected-(U1-IO38-Pad31)*%
X157821000Y-74909200D03*
%TO.P,U1,32,IO39*%
%TO.N,unconnected-(U1-IO39-Pad32)*%
X157821000Y-73639200D03*
%TO.P,U1,33,IO40*%
%TO.N,unconnected-(U1-IO40-Pad33)*%
X157821000Y-72369200D03*
%TO.P,U1,34,IO41*%
%TO.N,unconnected-(U1-IO41-Pad34)*%
X157821000Y-71099200D03*
%TO.P,U1,35,IO42*%
%TO.N,unconnected-(U1-IO42-Pad35)*%
X157821000Y-69829200D03*
%TO.P,U1,36,RXD0*%
%TO.N,/RX*%
X157821000Y-68559200D03*
%TO.P,U1,37,TXD0*%
%TO.N,/TX*%
X157821000Y-67289200D03*
%TO.P,U1,38,IO2*%
%TO.N,unconnected-(U1-IO2-Pad38)*%
X157821000Y-66019200D03*
%TO.P,U1,39,IO1*%
%TO.N,unconnected-(U1-IO1-Pad39)*%
X157821000Y-64749200D03*
%TO.P,U1,40,GND*%
%TO.N,GND*%
X157821000Y-63479200D03*
D22*
%TO.P,U1,41,GND*%
X146171000Y-70499200D03*
X146171000Y-71899200D03*
X146871000Y-69799200D03*
X146871000Y-71199200D03*
X146871000Y-72599200D03*
X147571000Y-70499200D03*
D23*
X147571000Y-71199200D03*
D22*
X147571000Y-71899200D03*
X148271000Y-69799200D03*
X148271000Y-71199200D03*
X148271000Y-72599200D03*
X148971000Y-70499200D03*
X148971000Y-71899200D03*
%TD*%
D19*
%TO.P,C2,1*%
%TO.N,+3.3V*%
X137845800Y-67259200D03*
%TO.P,C2,2*%
%TO.N,GND*%
X137845800Y-65359200D03*
%TD*%
D24*
%TO.P,J3,1,Pin_1*%
%TO.N,/EN*%
X157542200Y-90321200D03*
D25*
%TO.P,J3,2,Pin_2*%
%TO.N,+3.3V*%
X160082200Y-90321200D03*
%TO.P,J3,3,Pin_3*%
%TO.N,/TX*%
X157542200Y-92861200D03*
%TO.P,J3,4,Pin_4*%
%TO.N,GND*%
X160082200Y-92861200D03*
%TO.P,J3,5,Pin_5*%
%TO.N,/RX*%
X157542200Y-95401200D03*
%TO.P,J3,6,Pin_6*%
%TO.N,/BOOT*%
X160082200Y-95401200D03*
%TD*%
D19*
%TO.P,C1,1*%
%TO.N,+3.3V*%
X135509000Y-67244000D03*
%TO.P,C1,2*%
%TO.N,GND*%
X135509000Y-65344000D03*
%TD*%
D26*
%TO.P,D4,1,K*%
%TO.N,+V_IN*%
X143207100Y-119229800D03*
%TO.P,D4,2,A*%
%TO.N,+3.7V_BATT*%
X143207100Y-122529800D03*
%TD*%
D27*
%TO.P,J4,1,Pin_1*%
%TO.N,+3.3V*%
X150818200Y-130302000D03*
D28*
%TO.P,J4,2,Pin_2*%
X153318200Y-130302000D03*
%TO.P,J4,3,Pin_3*%
%TO.N,/HX711 DOUT*%
X155818200Y-130302000D03*
%TO.P,J4,4,Pin_4*%
%TO.N,/HX711 PDSCK*%
X158318200Y-130302000D03*
%TO.P,J4,5,Pin_5*%
%TO.N,GND*%
X160818200Y-130302000D03*
%TD*%
D29*
%TO.P,R6,1*%
%TO.N,+3.3V*%
X142286600Y-112461800D03*
%TO.P,R6,2*%
%TO.N,/BOOT*%
X142286600Y-114461800D03*
%TD*%
D30*
%TO.P,IMU,1,SDO*%
%TO.N,/MISO*%
X147913600Y-101246900D03*
%TO.P,IMU,2,NC*%
%TO.N,unconnected-(ICM-42670-P1-NC-Pad2)*%
X147913600Y-101746900D03*
%TO.P,IMU,3,NC*%
%TO.N,unconnected-(ICM-42670-P1-NC-Pad3)*%
X147913600Y-102246900D03*
%TO.P,IMU,4,INT*%
%TO.N,/INT1 Gyro*%
X147913600Y-102746900D03*
D31*
%TO.P,IMU,5,VDDIO*%
%TO.N,+3.3V*%
X148576100Y-102909400D03*
%TO.P,IMU,6,GND*%
%TO.N,GND*%
X149076100Y-102909400D03*
%TO.P,IMU,7,FSYNC*%
X149576100Y-102909400D03*
D30*
%TO.P,IMU,8,VDD*%
%TO.N,+3.3V*%
X150238600Y-102746900D03*
%TO.P,IMU,9,INT2*%
%TO.N,/INT2 Gyro*%
X150238600Y-102246900D03*
%TO.P,IMU,10,NC*%
%TO.N,unconnected-(ICM-42670-P1-NC-Pad10)*%
X150238600Y-101746900D03*
%TO.P,IMU,11,NC*%
%TO.N,unconnected-(ICM-42670-P1-NC-Pad11)*%
X150238600Y-101246900D03*
D31*
%TO.P,IMU,12,CS*%
%TO.N,/CS Gyro*%
X149576100Y-101084400D03*
%TO.P,IMU,13,SCLK*%
%TO.N,/SCLK*%
X149076100Y-101084400D03*
%TO.P,IMU,14,SDI*%
%TO.N,/MOSI*%
X148576100Y-101084400D03*
%TD*%
D32*
%TO.P,J6,*%
%TO.N,*%
X137049400Y-89302200D03*
X137049400Y-92102200D03*
D33*
%TO.P,J6,A1,GND*%
%TO.N,GND*%
X141249400Y-87602200D03*
%TO.P,J6,A4,VBUS*%
%TO.N,+5V_USB*%
X141249400Y-88352200D03*
D34*
%TO.P,J6,A5,CC1*%
%TO.N,Net-(J6-CC1)*%
X141249400Y-88952200D03*
%TO.P,J6,A6,D+*%
%TO.N,/D+*%
X141249400Y-90452200D03*
%TO.P,J6,A7,D-*%
%TO.N,/D-*%
X141249400Y-91452200D03*
%TO.P,J6,A8,SBU1*%
%TO.N,unconnected-(J6-SBU1-PadA8)*%
X141249400Y-92452200D03*
D33*
%TO.P,J6,A9,VBUS*%
%TO.N,+5V_USB*%
X141249400Y-93052200D03*
%TO.P,J6,A12,GND*%
%TO.N,GND*%
X141249400Y-93802200D03*
%TO.P,J6,B1,GND*%
X141249400Y-93802200D03*
%TO.P,J6,B4,VBUS*%
%TO.N,+5V_USB*%
X141249400Y-93052200D03*
D34*
%TO.P,J6,B5,CC2*%
%TO.N,Net-(J6-CC2)*%
X141249400Y-91952200D03*
%TO.P,J6,B6,D+*%
%TO.N,/D+*%
X141249400Y-90952200D03*
%TO.P,J6,B7,D-*%
%TO.N,/D-*%
X141249400Y-89952200D03*
%TO.P,J6,B8,SBU2*%
%TO.N,unconnected-(J6-SBU2-PadB8)*%
X141249400Y-89452200D03*
D33*
%TO.P,J6,B9,VBUS*%
%TO.N,+5V_USB*%
X141249400Y-88352200D03*
%TO.P,J6,B12,GND*%
%TO.N,GND*%
X141249400Y-87602200D03*
D35*
%TO.P,J6,S1,SHIELD*%
X140874400Y-86382200D03*
D36*
X137049400Y-86382200D03*
D35*
X140874400Y-95022200D03*
D36*
X137049400Y-95022200D03*
%TD*%
D17*
%TO.P,R8,1*%
%TO.N,Net-(J6-CC2)*%
X144602200Y-94591500D03*
%TO.P,R8,2*%
%TO.N,GND*%
X144602200Y-96416500D03*
%TD*%
D19*
%TO.P,C5,1*%
%TO.N,GND*%
X154459300Y-118629400D03*
%TO.P,C5,2*%
%TO.N,+V_IN*%
X154459300Y-116729400D03*
%TD*%
D37*
%TO.P,C3,1*%
%TO.N,+3.3V*%
X135483600Y-69281000D03*
%TO.P,C3,2*%
%TO.N,GND*%
X135483600Y-71181000D03*
%TD*%
D19*
%TO.P,C4,1*%
%TO.N,GND*%
X146366200Y-106932800D03*
%TO.P,C4,2*%
%TO.N,+3.3V*%
X146366200Y-105032800D03*
%TD*%
D38*
%TO.P,U2,1,VI*%
%TO.N,+V_IN*%
X151182700Y-117195200D03*
%TO.P,U2,2,GND*%
%TO.N,GND*%
X148882700Y-117195200D03*
D39*
X148882700Y-123495200D03*
D38*
%TO.P,U2,3,VO*%
%TO.N,+3.3V*%
X146582700Y-117195200D03*
%TD*%
D40*
%TO.P,D3,1,K*%
%TO.N,+V_IN*%
X151638900Y-113996400D03*
%TO.P,D3,2,A*%
%TO.N,+5V_USB*%
X148338900Y-113996400D03*
%TD*%
D16*
%TO.P,SW1,1,1*%
%TO.N,/EN*%
X139721200Y-98881000D03*
X139721200Y-105081000D03*
%TO.P,SW1,2,2*%
%TO.N,GND*%
X136021200Y-98881000D03*
X136021200Y-105081000D03*
%TD*%
D13*
%TO.P,D2,1,K*%
%TO.N,GND*%
X160971200Y-113411000D03*
%TO.P,D2,2,A*%
%TO.N,Net-(D2-A)*%
X160971200Y-111536000D03*
%TD*%
D17*
%TO.P,R1,1*%
%TO.N,/LED*%
X157415200Y-107186800D03*
%TO.P,R1,2*%
%TO.N,Net-(D1-A)*%
X157415200Y-109011800D03*
%TD*%
D19*
%TO.P,C8,1*%
%TO.N,GND*%
X151903400Y-106897200D03*
%TO.P,C8,2*%
%TO.N,+3.3V*%
X151903400Y-104997200D03*
%TD*%
D41*
%TO.N,+3.3V*%
X157734000Y-81864200D03*
X147421600Y-118604800D03*
X155778200Y-79832200D03*
%TO.N,/BOOT*%
X151917400Y-103378000D03*
X141000000Y-108000000D03*
%TO.N,/EN*%
X143027400Y-98907600D03*
X150758558Y-79822642D03*
%TO.N,/LED*%
X149529800Y-79629000D03*
X157403800Y-105943400D03*
X150139400Y-82880200D03*
X150317200Y-98348800D03*
%TO.N,+5V_USB*%
X144297400Y-104495600D03*
X142163800Y-88315800D03*
X144703800Y-88087200D03*
X144297400Y-105993600D03*
%TO.N,/HX711 DOUT*%
X159562800Y-119151400D03*
X156583000Y-83413600D03*
%TO.N,/HX711 PDSCK*%
X162788600Y-108254800D03*
X160065341Y-87709114D03*
X156538234Y-84212349D03*
%TO.N,GND*%
X160858200Y-115239800D03*
X155500000Y-95500000D03*
X146177000Y-96316800D03*
X149000000Y-102000000D03*
X144967496Y-85852400D03*
%TO.N,/RX*%
X154762200Y-83388200D03*
X154533600Y-79207200D03*
%TO.N,/TX*%
X159490342Y-88845458D03*
%TO.N,Net-(J6-CC1)*%
X140000000Y-89500000D03*
X143500000Y-92000000D03*
%TD*%
D42*
%TO.N,+3.3V*%
X160082200Y-90321200D02*
X157734000Y-87973000D01*
X142214600Y-105368600D02*
X146030400Y-105368600D01*
X146582700Y-117765900D02*
X147421600Y-118604800D01*
X150818200Y-130302000D02*
X153318200Y-130302000D01*
X142214600Y-112389800D02*
X142286600Y-112461800D01*
X143447100Y-113622300D02*
X143447100Y-117017800D01*
X151652000Y-79832200D02*
X142875000Y-71055200D01*
X135483600Y-69281000D02*
X135483600Y-67269400D01*
X142875000Y-71055200D02*
X142875000Y-66721200D01*
X146582700Y-117195200D02*
X146582700Y-117765900D01*
X150238600Y-102746900D02*
X151903400Y-104411700D01*
X142214600Y-105368600D02*
X142214600Y-112389800D01*
X151903400Y-104411700D02*
X151903400Y-104997200D01*
X158879400Y-104997200D02*
X151903400Y-104997200D01*
X149297400Y-105032800D02*
X149333000Y-104997200D01*
X149134800Y-105032800D02*
X149297400Y-105032800D01*
X161258200Y-106852800D02*
X160996600Y-107114400D01*
X148576100Y-102909400D02*
X148576100Y-104474100D01*
X135483600Y-67269400D02*
X135509000Y-67244000D01*
X138896800Y-65591400D02*
X138896800Y-66208200D01*
X155778200Y-79832200D02*
X151652000Y-79832200D01*
X160996600Y-107114400D02*
X158879400Y-104997200D01*
X161258200Y-91497200D02*
X161258200Y-106852800D01*
X146366200Y-105032800D02*
X149134800Y-105032800D01*
X149333000Y-104997200D02*
X151903400Y-104997200D01*
X138896800Y-66208200D02*
X137845800Y-67259200D01*
X148576100Y-104474100D02*
X149134800Y-105032800D01*
X143447100Y-117017800D02*
X146405300Y-117017800D01*
X146030400Y-105368600D02*
X146366200Y-105032800D01*
X139739000Y-64749200D02*
X138896800Y-65591400D01*
X157734000Y-87973000D02*
X157734000Y-81864200D01*
X137845800Y-67259200D02*
X135524200Y-67259200D01*
X140903000Y-64749200D02*
X140321000Y-64749200D01*
X146405300Y-117017800D02*
X146582700Y-117195200D01*
X142286600Y-112461800D02*
X143447100Y-113622300D01*
X140321000Y-64749200D02*
X139739000Y-64749200D01*
X142875000Y-66721200D02*
X140903000Y-64749200D01*
X160082200Y-90321200D02*
X161258200Y-91497200D01*
X135444200Y-67501800D02*
X135393400Y-67552600D01*
%TO.N,+V_IN*%
X151182700Y-117195200D02*
X151182700Y-117117500D01*
X151182700Y-117117500D02*
X151638900Y-116661300D01*
X154459300Y-116729400D02*
X151648500Y-116729400D01*
X144500000Y-121500000D02*
X143207100Y-120207100D01*
X151648500Y-116729400D02*
X151182700Y-117195200D01*
X151638900Y-116661300D02*
X151638900Y-113996400D01*
X143207100Y-120207100D02*
X143207100Y-119229800D01*
X150500000Y-121500000D02*
X144500000Y-121500000D01*
X151182700Y-117195200D02*
X151182700Y-120817300D01*
X151182700Y-120817300D02*
X150500000Y-121500000D01*
D43*
%TO.N,/BOOT*%
X139717000Y-107974200D02*
X140974200Y-107974200D01*
X158956200Y-89762300D02*
X157158000Y-87964100D01*
X160082200Y-95401200D02*
X158956200Y-94275200D01*
X140974200Y-107974200D02*
X141000000Y-108000000D01*
X152105400Y-103378000D02*
X151917400Y-103378000D01*
X160082200Y-95401200D02*
X152105400Y-103378000D01*
X140325800Y-114174200D02*
X140613400Y-114461800D01*
X139717000Y-114174200D02*
X140325800Y-114174200D01*
X157158000Y-87964100D02*
X157158000Y-80652200D01*
X140613400Y-114461800D02*
X142286600Y-114461800D01*
X157158000Y-80652200D02*
X157821000Y-79989200D01*
X158956200Y-94275200D02*
X158956200Y-89762300D01*
X139717000Y-107974200D02*
X139717000Y-114174200D01*
D42*
%TO.N,Net-(J6-CC2)*%
X142760902Y-91353800D02*
X144934314Y-91353800D01*
X144934314Y-91353800D02*
X145412800Y-91832286D01*
X142162502Y-91952200D02*
X142760902Y-91353800D01*
X145412800Y-93780900D02*
X144602200Y-94591500D01*
X141249400Y-91952200D02*
X142162502Y-91952200D01*
X145412800Y-91832286D02*
X145412800Y-93780900D01*
D43*
%TO.N,/EN*%
X141019200Y-66019200D02*
X142316200Y-67316200D01*
X143027400Y-98907600D02*
X143000800Y-98881000D01*
X140502200Y-105081000D02*
X142214600Y-103368600D01*
X142316200Y-67316200D02*
X142316200Y-71380284D01*
X143000800Y-98881000D02*
X139721200Y-98881000D01*
X139721200Y-105081000D02*
X140502200Y-105081000D01*
X142316200Y-71380284D02*
X150758558Y-79822642D01*
X140321000Y-66019200D02*
X141019200Y-66019200D01*
X139721200Y-98881000D02*
X139721200Y-105081000D01*
%TO.N,Net-(D1-A)*%
X157415200Y-109011800D02*
X157415200Y-111560200D01*
X157415200Y-111560200D02*
X157440600Y-111585600D01*
%TO.N,Net-(D2-A)*%
X160996600Y-111510600D02*
X160971200Y-111536000D01*
X160996600Y-108939400D02*
X160996600Y-111510600D01*
%TO.N,/MOSI*%
X149706000Y-81721200D02*
X148576100Y-82851100D01*
X148576100Y-82851100D02*
X148576100Y-101084400D01*
X149706000Y-81239200D02*
X149706000Y-81721200D01*
%TO.N,/INT1 Gyro*%
X147166000Y-81239200D02*
X147166000Y-102328292D01*
X147166000Y-102328292D02*
X147584608Y-102746900D01*
X147584608Y-102746900D02*
X147913600Y-102746900D01*
%TO.N,/CS Gyro*%
X152246000Y-98410508D02*
X149576100Y-101080408D01*
X152246000Y-81239200D02*
X152246000Y-98410508D01*
X149576100Y-101080408D02*
X149576100Y-101084400D01*
%TO.N,/MISO*%
X147913600Y-81761600D02*
X147913600Y-101246900D01*
X148436000Y-81239200D02*
X147913600Y-81761600D01*
%TO.N,/SCLK*%
X150976000Y-81239200D02*
X150976000Y-98855508D01*
X150976000Y-98855508D02*
X149076100Y-100755408D01*
X149076100Y-100755408D02*
X149076100Y-101084400D01*
%TO.N,/INT2 Gyro*%
X153516000Y-99298492D02*
X150567592Y-102246900D01*
X150567592Y-102246900D02*
X150238600Y-102246900D01*
X153516000Y-81239200D02*
X153516000Y-99298492D01*
%TO.N,/D+*%
X141042844Y-81948044D02*
X140957992Y-81863192D01*
X141773850Y-83762636D02*
X141688993Y-83677779D01*
X145595099Y-83801400D02*
X142896200Y-83801400D01*
X145871100Y-84739900D02*
X145871100Y-84077401D01*
X145871100Y-84077401D02*
X145595099Y-83801400D01*
X141636816Y-82542016D02*
X141467109Y-82711720D01*
X142896200Y-83801400D02*
X142655055Y-83560255D01*
X141688992Y-83338367D02*
X141891374Y-83135986D01*
X145047800Y-90452200D02*
X141249400Y-90452200D01*
X141636814Y-82542014D02*
X141636816Y-82542016D01*
X141710270Y-82468559D02*
X141636814Y-82542014D01*
X140957992Y-81863192D02*
X140392072Y-81297272D01*
X140840491Y-82489808D02*
X141042844Y-82287456D01*
X140925346Y-82914074D02*
X140840492Y-82829220D01*
X141891374Y-83135986D02*
X142061079Y-82966281D01*
X140321000Y-81226200D02*
X140321000Y-79989200D01*
X141249400Y-90452200D02*
X141249400Y-90952200D01*
X142061079Y-82966281D02*
X142061082Y-82966282D01*
X145871100Y-89628900D02*
X145047800Y-90452200D01*
X140392072Y-81297272D02*
X140321000Y-81226200D01*
X142315643Y-83560255D02*
X142113260Y-83762635D01*
X145871100Y-87014900D02*
X145871100Y-89628900D01*
X142061082Y-82966282D02*
X142134537Y-82892826D01*
X145871100Y-84739900D02*
X145871100Y-87014900D01*
X141467109Y-82711720D02*
X141264756Y-82914073D01*
X142134537Y-82745916D02*
X141857180Y-82468559D01*
X142134537Y-82892826D02*
G75*
G03*
X142134508Y-82745945I-73437J73426D01*
G01*
X142113260Y-83762635D02*
G75*
G02*
X141773895Y-83762591I-169660J169735D01*
G01*
X141688993Y-83677779D02*
G75*
G02*
X141689019Y-83338395I169707J169679D01*
G01*
X140840492Y-82829220D02*
G75*
G02*
X140840477Y-82489795I169708J169720D01*
G01*
X141857180Y-82468559D02*
G75*
G03*
X141710270Y-82468559I-73455J-73455D01*
G01*
X141264756Y-82914073D02*
G75*
G02*
X140925396Y-82914025I-169656J169673D01*
G01*
X142655055Y-83560255D02*
G75*
G03*
X142315643Y-83560255I-169706J-169701D01*
G01*
X141042844Y-82287456D02*
G75*
G03*
X141042794Y-81948094I-169744J169656D01*
G01*
%TO.N,/D-*%
X140547800Y-89952200D02*
X140182600Y-90317400D01*
X139421000Y-78719200D02*
X138000000Y-80140200D01*
X141936400Y-89952200D02*
X141249400Y-89952200D01*
X139212463Y-82597111D02*
X139444402Y-82829050D01*
X143971100Y-87917500D02*
X141936400Y-89952200D01*
X143971100Y-84739900D02*
X143971100Y-87014900D01*
X140060991Y-83060991D02*
X140259418Y-83259418D01*
X140321000Y-78719200D02*
X139421000Y-78719200D01*
X141249400Y-89952200D02*
X140547800Y-89952200D01*
X140182600Y-91182600D02*
X140452200Y-91452200D01*
X143971100Y-87014900D02*
X143971100Y-87917500D01*
X140452200Y-91452200D02*
X141249400Y-91452200D01*
X138000000Y-80140200D02*
X138000000Y-81000000D01*
X140259418Y-83259418D02*
X141739900Y-84739900D01*
X141739900Y-84739900D02*
X143971100Y-84739900D01*
X138000000Y-81000000D02*
X139212463Y-82212463D01*
X140182600Y-90317400D02*
X140182600Y-91182600D01*
X139829051Y-82829050D02*
X140060991Y-83060991D01*
X139212463Y-82212463D02*
G75*
G02*
X139212438Y-82404762I-96163J-96137D01*
G01*
X139212463Y-82404787D02*
G75*
G03*
X139212512Y-82597062I96137J-96113D01*
G01*
X139636727Y-82829050D02*
G75*
G02*
X139829051Y-82829050I96162J-96161D01*
G01*
X139444402Y-82829050D02*
G75*
G03*
X139636727Y-82829051I96163J96165D01*
G01*
%TO.N,/LED*%
X157403800Y-105943400D02*
X157403800Y-107175400D01*
X157403800Y-107175400D02*
X157415200Y-107186800D01*
X150139400Y-82880200D02*
X150139400Y-98171000D01*
X141965200Y-68033400D02*
X141965200Y-72064400D01*
X141965200Y-72064400D02*
X149529800Y-79629000D01*
X140321000Y-67289200D02*
X141221000Y-67289200D01*
X141221000Y-67289200D02*
X141965200Y-68033400D01*
X150139400Y-98171000D02*
X150317200Y-98348800D01*
D42*
%TO.N,+5V_USB*%
X141960600Y-96723200D02*
X142868700Y-97631300D01*
X142127400Y-88352200D02*
X142163800Y-88315800D01*
X144703800Y-88087200D02*
X144703800Y-87232200D01*
X148338900Y-113996400D02*
X144297400Y-109954900D01*
X136000000Y-88000000D02*
X135423400Y-88576600D01*
X144297400Y-109954900D02*
X144297400Y-105993600D01*
X141249400Y-88352200D02*
X141223400Y-88378200D01*
X142350400Y-96333400D02*
X141960600Y-96723200D01*
X143868700Y-98631300D02*
X142868700Y-97631300D01*
X144297400Y-104495600D02*
X144297400Y-99060000D01*
X135423400Y-88576600D02*
X135423400Y-92628200D01*
X135423400Y-95426472D02*
X136720128Y-96723200D01*
X141249400Y-88352200D02*
X142127400Y-88352200D01*
X141999400Y-93052200D02*
X142350400Y-93403200D01*
X142350400Y-93403200D02*
X142350400Y-96333400D01*
X141223400Y-88378200D02*
X139621800Y-88378200D01*
X141249400Y-93052200D02*
X141999400Y-93052200D01*
X144297400Y-99060000D02*
X143868700Y-98631300D01*
X136720128Y-96723200D02*
X141960600Y-96723200D01*
X139243600Y-88000000D02*
X136000000Y-88000000D01*
X144703800Y-87232200D02*
X144921100Y-87014900D01*
X135423400Y-92628200D02*
X135423400Y-95426472D01*
X139621800Y-88378200D02*
X139243600Y-88000000D01*
D43*
%TO.N,/HX711 DOUT*%
X156056000Y-82886600D02*
X156056000Y-81239200D01*
X156583000Y-83413600D02*
X156056000Y-82886600D01*
X159562800Y-126557400D02*
X155818200Y-130302000D01*
X159562800Y-119151400D02*
X159562800Y-126557400D01*
%TO.N,/HX711 PDSCK*%
X162052000Y-107518200D02*
X162788600Y-108254800D01*
X154786000Y-82460115D02*
X156538234Y-84212349D01*
X154786000Y-81239200D02*
X154786000Y-82460115D01*
X162052000Y-89695773D02*
X160065341Y-87709114D01*
X162052000Y-89695773D02*
X162052000Y-107518200D01*
D42*
%TO.N,GND*%
X144921100Y-84739900D02*
X144921100Y-85806004D01*
X135459400Y-65784800D02*
X135444200Y-65769600D01*
X141249400Y-93802200D02*
X141249400Y-94647200D01*
X144921100Y-85806004D02*
X144967496Y-85852400D01*
X140874400Y-95022200D02*
X137049400Y-95022200D01*
X139725800Y-63479200D02*
X140321000Y-63479200D01*
X137845800Y-65359200D02*
X139725800Y-63479200D01*
X149076100Y-102076100D02*
X149000000Y-102000000D01*
X140874400Y-86382200D02*
X140874400Y-87227200D01*
X149576100Y-102909400D02*
X149076100Y-102909400D01*
X149076100Y-102909400D02*
X149076100Y-102076100D01*
X140874400Y-87227200D02*
X141249400Y-87602200D01*
X141249400Y-94647200D02*
X140874400Y-95022200D01*
%TO.N,+3.7V_BATT*%
X139487400Y-126249500D02*
X143207100Y-122529800D01*
X139487400Y-131636600D02*
X139487400Y-126249500D01*
D43*
%TO.N,/RX*%
X154762200Y-83388200D02*
X154762200Y-92621200D01*
X154533600Y-70946600D02*
X154533600Y-79207200D01*
X154762200Y-92621200D02*
X157542200Y-95401200D01*
X156921000Y-68559200D02*
X154533600Y-70946600D01*
X157821000Y-68559200D02*
X156921000Y-68559200D01*
%TO.N,/TX*%
X158303000Y-67289200D02*
X159490342Y-68476542D01*
X157821000Y-67289200D02*
X158303000Y-67289200D01*
X159490342Y-68476542D02*
X159490342Y-88845458D01*
%TO.N,Net-(J6-CC1)*%
X144426300Y-92379800D02*
X143879800Y-92379800D01*
X140547800Y-88952200D02*
X140000000Y-89500000D01*
X141249400Y-88952200D02*
X140547800Y-88952200D01*
X143879800Y-92379800D02*
X143500000Y-92000000D01*
%TD*%
%TA.AperFunction,Conductor*%
%TO.N,GND*%
G36*
X136761962Y-67956723D02*
G01*
X136777542Y-67976971D01*
X136778088Y-67977856D01*
X136902144Y-68101912D01*
X137051466Y-68194014D01*
X137218003Y-68249199D01*
X137320791Y-68259700D01*
X138370808Y-68259699D01*
X138370816Y-68259698D01*
X138370819Y-68259698D01*
X138427102Y-68253948D01*
X138473597Y-68249199D01*
X138640134Y-68194014D01*
X138789456Y-68101912D01*
X138858822Y-68032545D01*
X138920141Y-67999063D01*
X138989833Y-68004047D01*
X139045767Y-68045918D01*
X139070184Y-68111382D01*
X139070500Y-68120229D01*
X139070500Y-69057070D01*
X139070501Y-69057076D01*
X139076908Y-69116681D01*
X139089659Y-69150869D01*
X139094642Y-69220561D01*
X139089659Y-69237531D01*
X139076908Y-69271718D01*
X139070501Y-69331316D01*
X139070500Y-69331335D01*
X139070500Y-70327070D01*
X139070501Y-70327076D01*
X139076908Y-70386681D01*
X139089659Y-70420869D01*
X139094642Y-70490561D01*
X139089659Y-70507531D01*
X139076908Y-70541718D01*
X139070501Y-70601316D01*
X139070500Y-70601335D01*
X139070500Y-71597070D01*
X139070501Y-71597076D01*
X139076908Y-71656681D01*
X139089659Y-71690869D01*
X139094642Y-71760561D01*
X139089659Y-71777531D01*
X139076908Y-71811718D01*
X139070501Y-71871316D01*
X139070500Y-71871335D01*
X139070500Y-72867070D01*
X139070501Y-72867076D01*
X139076908Y-72926681D01*
X139089659Y-72960869D01*
X139094642Y-73030561D01*
X139089659Y-73047531D01*
X139076908Y-73081718D01*
X139070501Y-73141316D01*
X139070501Y-73141323D01*
X139070500Y-73141335D01*
X139070500Y-74137070D01*
X139070501Y-74137076D01*
X139076908Y-74196681D01*
X139089659Y-74230869D01*
X139094642Y-74300561D01*
X139089659Y-74317531D01*
X139076908Y-74351718D01*
X139070501Y-74411316D01*
X139070501Y-74411323D01*
X139070500Y-74411335D01*
X139070500Y-75407070D01*
X139070501Y-75407076D01*
X139076908Y-75466681D01*
X139089659Y-75500869D01*
X139094642Y-75570561D01*
X139089659Y-75587531D01*
X139076908Y-75621718D01*
X139070501Y-75681316D01*
X139070501Y-75681323D01*
X139070500Y-75681335D01*
X139070500Y-76677070D01*
X139070501Y-76677076D01*
X139076908Y-76736681D01*
X139089659Y-76770869D01*
X139094642Y-76840561D01*
X139089659Y-76857531D01*
X139076908Y-76891718D01*
X139070501Y-76951316D01*
X139070501Y-76951323D01*
X139070500Y-76951335D01*
X139070500Y-77947070D01*
X139070501Y-77947076D01*
X139076908Y-78006681D01*
X139089659Y-78040869D01*
X139094673Y-78110415D01*
X139092781Y-78119158D01*
X139076909Y-78161717D01*
X139070500Y-78221327D01*
X139070500Y-78222173D01*
X139068928Y-78229441D01*
X139055237Y-78254584D01*
X139044281Y-78281034D01*
X139035532Y-78290773D01*
X139035516Y-78290803D01*
X139035495Y-78290814D01*
X139035412Y-78290907D01*
X137646635Y-79679685D01*
X137539487Y-79786832D01*
X137539485Y-79786835D01*
X137463719Y-79918063D01*
X137424500Y-80064434D01*
X137424500Y-81075765D01*
X137463719Y-81222136D01*
X137501602Y-81287750D01*
X137539485Y-81353365D01*
X137539487Y-81353367D01*
X138560761Y-82374641D01*
X138594246Y-82435964D01*
X138597080Y-82462289D01*
X138597109Y-82571175D01*
X138624495Y-82708645D01*
X138678179Y-82838135D01*
X138740233Y-82930936D01*
X138740247Y-82930955D01*
X138743402Y-82935674D01*
X138751948Y-82950476D01*
X138756028Y-82954556D01*
X138756101Y-82954665D01*
X138803998Y-83002526D01*
X138804030Y-83002558D01*
X138804031Y-83002559D01*
X138982669Y-83181197D01*
X138982670Y-83181197D01*
X138988051Y-83186578D01*
X138988054Y-83186583D01*
X139037466Y-83235994D01*
X139037466Y-83235993D01*
X139091037Y-83289564D01*
X139102229Y-83296025D01*
X139109093Y-83300293D01*
X139203549Y-83363406D01*
X139333031Y-83417038D01*
X139333038Y-83417039D01*
X139333038Y-83417040D01*
X139470483Y-83444379D01*
X139470486Y-83444380D01*
X139470488Y-83444380D01*
X139579139Y-83444380D01*
X139608576Y-83453024D01*
X139638562Y-83459547D01*
X139643578Y-83463302D01*
X139646176Y-83464065D01*
X139666814Y-83480694D01*
X139707624Y-83521505D01*
X139707627Y-83521506D01*
X139717839Y-83531718D01*
X139791832Y-83605711D01*
X139791835Y-83605715D01*
X141206639Y-85020519D01*
X141240124Y-85081842D01*
X141235140Y-85151534D01*
X141193268Y-85207467D01*
X141127804Y-85231884D01*
X141124601Y-85231998D01*
X141124400Y-85232200D01*
X141124400Y-86082200D01*
X140624400Y-86082200D01*
X140624400Y-85232200D01*
X140283894Y-85232200D01*
X140105106Y-85260517D01*
X139932955Y-85316451D01*
X139932952Y-85316452D01*
X139771665Y-85398634D01*
X139625230Y-85505023D01*
X139497223Y-85633030D01*
X139390834Y-85779465D01*
X139308652Y-85940752D01*
X139308650Y-85940758D01*
X139252718Y-86112904D01*
X139252715Y-86112914D01*
X139249661Y-86132200D01*
X140207412Y-86132200D01*
X140190195Y-86142140D01*
X140134340Y-86197995D01*
X140094844Y-86266404D01*
X140074400Y-86342704D01*
X140074400Y-86421696D01*
X140094844Y-86497996D01*
X140134340Y-86566405D01*
X140190195Y-86622260D01*
X140207412Y-86632200D01*
X139249661Y-86632200D01*
X139252715Y-86651485D01*
X139252718Y-86651495D01*
X139308650Y-86823641D01*
X139308652Y-86823647D01*
X139390834Y-86984934D01*
X139497223Y-87131369D01*
X139562830Y-87196976D01*
X139596315Y-87258299D01*
X139591331Y-87327991D01*
X139549459Y-87383924D01*
X139483995Y-87408341D01*
X139448071Y-87405664D01*
X139437602Y-87403321D01*
X139426052Y-87398537D01*
X139338986Y-87381219D01*
X139305207Y-87374500D01*
X139305206Y-87374500D01*
X138632808Y-87374500D01*
X138565769Y-87354815D01*
X138520014Y-87302011D01*
X138510070Y-87232853D01*
X138539095Y-87169297D01*
X138545127Y-87162819D01*
X138576572Y-87131373D01*
X138576576Y-87131369D01*
X138682965Y-86984934D01*
X138765147Y-86823647D01*
X138765149Y-86823641D01*
X138821081Y-86651495D01*
X138821084Y-86651485D01*
X138824139Y-86632200D01*
X137866388Y-86632200D01*
X137883605Y-86622260D01*
X137939460Y-86566405D01*
X137978956Y-86497996D01*
X137999400Y-86421696D01*
X137999400Y-86342704D01*
X137978956Y-86266404D01*
X137939460Y-86197995D01*
X137883605Y-86142140D01*
X137866388Y-86132200D01*
X138824139Y-86132200D01*
X138821084Y-86112914D01*
X138821081Y-86112904D01*
X138765149Y-85940758D01*
X138765147Y-85940752D01*
X138682965Y-85779465D01*
X138576576Y-85633030D01*
X138448569Y-85505023D01*
X138302134Y-85398634D01*
X138140847Y-85316452D01*
X138140844Y-85316451D01*
X137968693Y-85260517D01*
X137789906Y-85232200D01*
X137299400Y-85232200D01*
X137299400Y-86082200D01*
X136799400Y-86082200D01*
X136799400Y-85232200D01*
X136308894Y-85232200D01*
X136130106Y-85260517D01*
X135957955Y-85316451D01*
X135957952Y-85316452D01*
X135796665Y-85398634D01*
X135650230Y-85505023D01*
X135522223Y-85633030D01*
X135415834Y-85779465D01*
X135333652Y-85940752D01*
X135333650Y-85940758D01*
X135277718Y-86112904D01*
X135277715Y-86112914D01*
X135274661Y-86132200D01*
X136232412Y-86132200D01*
X136215195Y-86142140D01*
X136159340Y-86197995D01*
X136119844Y-86266404D01*
X136099400Y-86342704D01*
X136099400Y-86421696D01*
X136119844Y-86497996D01*
X136159340Y-86566405D01*
X136215195Y-86622260D01*
X136232412Y-86632200D01*
X135274661Y-86632200D01*
X135277715Y-86651485D01*
X135277718Y-86651495D01*
X135333650Y-86823641D01*
X135333652Y-86823647D01*
X135415834Y-86984934D01*
X135522223Y-87131369D01*
X135650226Y-87259372D01*
X135650231Y-87259376D01*
X135665500Y-87270470D01*
X135708166Y-87325800D01*
X135714145Y-87395413D01*
X135681539Y-87457208D01*
X135661507Y-87473889D01*
X135601269Y-87514139D01*
X135601263Y-87514144D01*
X135162929Y-87952480D01*
X135024669Y-88090740D01*
X135024667Y-88090742D01*
X134983995Y-88131414D01*
X134937542Y-88177866D01*
X134909418Y-88219957D01*
X134909417Y-88219956D01*
X134869092Y-88280307D01*
X134869085Y-88280319D01*
X134836743Y-88358402D01*
X134821938Y-88394143D01*
X134821936Y-88394151D01*
X134821024Y-88398732D01*
X134821025Y-88398733D01*
X134799780Y-88505544D01*
X134797900Y-88514994D01*
X134797900Y-92566594D01*
X134797900Y-95364865D01*
X134797900Y-95488079D01*
X134797900Y-95488081D01*
X134797899Y-95488081D01*
X134807121Y-95534440D01*
X134807124Y-95534452D01*
X134807992Y-95538814D01*
X134821937Y-95608924D01*
X134835747Y-95642264D01*
X134838706Y-95649409D01*
X134838708Y-95649414D01*
X134869085Y-95722753D01*
X134869087Y-95722756D01*
X134890341Y-95754564D01*
X134890342Y-95754566D01*
X134937540Y-95825203D01*
X134937541Y-95825204D01*
X134937542Y-95825205D01*
X135024667Y-95912330D01*
X135024668Y-95912330D01*
X135031735Y-95919397D01*
X135031734Y-95919397D01*
X135031737Y-95919399D01*
X136234269Y-97121932D01*
X136234270Y-97121933D01*
X136321395Y-97209058D01*
X136394513Y-97257913D01*
X136400020Y-97262605D01*
X136415353Y-97286028D01*
X136433307Y-97307510D01*
X136434230Y-97314862D01*
X136438289Y-97321062D01*
X136438525Y-97349059D01*
X136442014Y-97376835D01*
X136438816Y-97383518D01*
X136438879Y-97390929D01*
X136423940Y-97414610D01*
X136411859Y-97439863D01*
X136405555Y-97443756D01*
X136401602Y-97450024D01*
X136376234Y-97461868D01*
X136352416Y-97476582D01*
X136341606Y-97478037D01*
X136338293Y-97479585D01*
X136334213Y-97479033D01*
X136319611Y-97481000D01*
X136271200Y-97481000D01*
X136271200Y-100281000D01*
X136447200Y-100281000D01*
X136514239Y-100300685D01*
X136559994Y-100353489D01*
X136571200Y-100405000D01*
X136571200Y-100981000D01*
X139021700Y-100981000D01*
X139088739Y-101000685D01*
X139134494Y-101053489D01*
X139145700Y-101105000D01*
X139145700Y-102857000D01*
X139126015Y-102924039D01*
X139073211Y-102969794D01*
X139021700Y-102981000D01*
X136571200Y-102981000D01*
X136571200Y-103557000D01*
X136551515Y-103624039D01*
X136498711Y-103669794D01*
X136447200Y-103681000D01*
X136271200Y-103681000D01*
X136271200Y-106555438D01*
X136267000Y-106569741D01*
X136267000Y-109374200D01*
X136443000Y-109374200D01*
X136510039Y-109393885D01*
X136555794Y-109446689D01*
X136567000Y-109498200D01*
X136567000Y-110074200D01*
X139017500Y-110074200D01*
X139084539Y-110093885D01*
X139130294Y-110146689D01*
X139141500Y-110198200D01*
X139141500Y-111950200D01*
X139121815Y-112017239D01*
X139069011Y-112062994D01*
X139017500Y-112074200D01*
X136567000Y-112074200D01*
X136567000Y-112650200D01*
X136547315Y-112717239D01*
X136494511Y-112762994D01*
X136443000Y-112774200D01*
X136267000Y-112774200D01*
X136267000Y-115574200D01*
X136614828Y-115574200D01*
X136614844Y-115574199D01*
X136674372Y-115567798D01*
X136674379Y-115567796D01*
X136809086Y-115517554D01*
X136809093Y-115517550D01*
X136924187Y-115431390D01*
X136924190Y-115431387D01*
X137010350Y-115316293D01*
X137010354Y-115316286D01*
X137060596Y-115181579D01*
X137062380Y-115174032D01*
X137064543Y-115174543D01*
X137086975Y-115120392D01*
X137144368Y-115080545D01*
X137183525Y-115074200D01*
X138549970Y-115074200D01*
X138617009Y-115093885D01*
X138662764Y-115146689D01*
X138670342Y-115174316D01*
X138671124Y-115174132D01*
X138672907Y-115181679D01*
X138723202Y-115316528D01*
X138723206Y-115316535D01*
X138809452Y-115431744D01*
X138809455Y-115431747D01*
X138924664Y-115517993D01*
X138924671Y-115517997D01*
X139059517Y-115568291D01*
X139059516Y-115568291D01*
X139066444Y-115569035D01*
X139119127Y-115574700D01*
X140314872Y-115574699D01*
X140374483Y-115568291D01*
X140509331Y-115517996D01*
X140624546Y-115431746D01*
X140710796Y-115316531D01*
X140761091Y-115181683D01*
X140764708Y-115148044D01*
X140765585Y-115145925D01*
X140765259Y-115143653D01*
X140778892Y-115113800D01*
X140791446Y-115083493D01*
X140793330Y-115082184D01*
X140794284Y-115080097D01*
X140821887Y-115062357D01*
X140848839Y-115043645D01*
X140851735Y-115043175D01*
X140853062Y-115042323D01*
X140887997Y-115037300D01*
X141031151Y-115037300D01*
X141098190Y-115056985D01*
X141143945Y-115109789D01*
X141148856Y-115122293D01*
X141151786Y-115131134D01*
X141243888Y-115280456D01*
X141367944Y-115404512D01*
X141517266Y-115496614D01*
X141683803Y-115551799D01*
X141745664Y-115558118D01*
X141810354Y-115584513D01*
X141850506Y-115641694D01*
X141853370Y-115711504D01*
X141820743Y-115769157D01*
X141797100Y-115792800D01*
X141797100Y-118242799D01*
X141847072Y-118242799D01*
X141847086Y-118242798D01*
X141949797Y-118232305D01*
X142116219Y-118177158D01*
X142116224Y-118177156D01*
X142265445Y-118085115D01*
X142389418Y-117961142D01*
X142391265Y-117958148D01*
X142393069Y-117956524D01*
X142393898Y-117955477D01*
X142394076Y-117955618D01*
X142443210Y-117911421D01*
X142512173Y-117900196D01*
X142576256Y-117928036D01*
X142586257Y-117937365D01*
X142595407Y-117946896D01*
X142604388Y-117961456D01*
X142728444Y-118085512D01*
X142728538Y-118085570D01*
X142730277Y-118087381D01*
X142745833Y-118117305D01*
X142761992Y-118146898D01*
X142761898Y-118148208D01*
X142762504Y-118149374D01*
X142759414Y-118182938D01*
X142757008Y-118216590D01*
X142756220Y-118217642D01*
X142756100Y-118218949D01*
X142735346Y-118245525D01*
X142715136Y-118272523D01*
X142713664Y-118273291D01*
X142713097Y-118274018D01*
X142710601Y-118274891D01*
X142679830Y-118290962D01*
X142523405Y-118342796D01*
X142523394Y-118342801D01*
X142379059Y-118431829D01*
X142379055Y-118431832D01*
X142259132Y-118551755D01*
X142259129Y-118551759D01*
X142170101Y-118696094D01*
X142170096Y-118696105D01*
X142116751Y-118857090D01*
X142106600Y-118956447D01*
X142106600Y-119503137D01*
X142106601Y-119503155D01*
X142116750Y-119602507D01*
X142116751Y-119602510D01*
X142170096Y-119763494D01*
X142170101Y-119763505D01*
X142259129Y-119907840D01*
X142259132Y-119907844D01*
X142379056Y-120027768D01*
X142522700Y-120116369D01*
X142569421Y-120168314D01*
X142581600Y-120221905D01*
X142581600Y-120268711D01*
X142605635Y-120389544D01*
X142605640Y-120389561D01*
X142652785Y-120503380D01*
X142652787Y-120503383D01*
X142652788Y-120503386D01*
X142687015Y-120554609D01*
X142721242Y-120605833D01*
X142808367Y-120692958D01*
X142808369Y-120692959D01*
X142818332Y-120702922D01*
X143483028Y-121367619D01*
X143516513Y-121428942D01*
X143511529Y-121498634D01*
X143469657Y-121554567D01*
X143404193Y-121578984D01*
X143395347Y-121579300D01*
X142783762Y-121579300D01*
X142783744Y-121579301D01*
X142684392Y-121589450D01*
X142684389Y-121589451D01*
X142523405Y-121642796D01*
X142523394Y-121642801D01*
X142379059Y-121731829D01*
X142379055Y-121731832D01*
X142259132Y-121851755D01*
X142259129Y-121851759D01*
X142170101Y-121996094D01*
X142170096Y-121996105D01*
X142116751Y-122157090D01*
X142106600Y-122256447D01*
X142106600Y-122694347D01*
X142086915Y-122761386D01*
X142070281Y-122782028D01*
X139001544Y-125850764D01*
X139001538Y-125850772D01*
X138933092Y-125953205D01*
X138933084Y-125953219D01*
X138899747Y-126033707D01*
X138894223Y-126047043D01*
X138885937Y-126067045D01*
X138885935Y-126067053D01*
X138861900Y-126187889D01*
X138861900Y-130230542D01*
X138842215Y-130297581D01*
X138802998Y-130336079D01*
X138756865Y-130364535D01*
X138668742Y-130418889D01*
X138544689Y-130542942D01*
X138452587Y-130692263D01*
X138452586Y-130692266D01*
X138397401Y-130858803D01*
X138397401Y-130858804D01*
X138397400Y-130858804D01*
X138386900Y-130961583D01*
X138386900Y-132311601D01*
X138386901Y-132311618D01*
X138397400Y-132414396D01*
X138397401Y-132414399D01*
X138452585Y-132580931D01*
X138452586Y-132580934D01*
X138544688Y-132730256D01*
X138668744Y-132854312D01*
X138818066Y-132946414D01*
X138984603Y-133001599D01*
X139087391Y-133012100D01*
X139887408Y-133012099D01*
X139887416Y-133012098D01*
X139887419Y-133012098D01*
X139943702Y-133006348D01*
X139990197Y-133001599D01*
X140156734Y-132946414D01*
X140306056Y-132854312D01*
X140430112Y-132730256D01*
X140469981Y-132665616D01*
X140521925Y-132618894D01*
X140590888Y-132607671D01*
X140654970Y-132635514D01*
X140663199Y-132643034D01*
X140770797Y-132750632D01*
X140910875Y-132852404D01*
X141065144Y-132931008D01*
X141229815Y-132984514D01*
X141229814Y-132984514D01*
X141237399Y-132985715D01*
X141237400Y-132985714D01*
X141237400Y-131916930D01*
X141257145Y-131936675D01*
X141342655Y-131986044D01*
X141438030Y-132011600D01*
X141536770Y-132011600D01*
X141632145Y-131986044D01*
X141717655Y-131936675D01*
X141737400Y-131916930D01*
X141737400Y-132985715D01*
X141744984Y-132984514D01*
X141909655Y-132931008D01*
X142063924Y-132852404D01*
X142204002Y-132750632D01*
X142326432Y-132628202D01*
X142428204Y-132488124D01*
X142506808Y-132333857D01*
X142560314Y-132169184D01*
X142587400Y-131998171D01*
X142587400Y-131886600D01*
X141767730Y-131886600D01*
X141787475Y-131866855D01*
X141836844Y-131781345D01*
X141862400Y-131685970D01*
X141862400Y-131587230D01*
X141836844Y-131491855D01*
X141787475Y-131406345D01*
X141767730Y-131386600D01*
X142587400Y-131386600D01*
X142587400Y-131275028D01*
X142560314Y-131104015D01*
X142506808Y-130939342D01*
X142428204Y-130785075D01*
X142326432Y-130644997D01*
X142204002Y-130522567D01*
X142063924Y-130420795D01*
X141909657Y-130342191D01*
X141744989Y-130288687D01*
X141744981Y-130288685D01*
X141737400Y-130287484D01*
X141737400Y-131356270D01*
X141717655Y-131336525D01*
X141632145Y-131287156D01*
X141536770Y-131261600D01*
X141438030Y-131261600D01*
X141342655Y-131287156D01*
X141257145Y-131336525D01*
X141237400Y-131356270D01*
X141237400Y-130287484D01*
X141237399Y-130287484D01*
X141229818Y-130288685D01*
X141229810Y-130288687D01*
X141065142Y-130342191D01*
X140910875Y-130420795D01*
X140770801Y-130522564D01*
X140663199Y-130630166D01*
X140601876Y-130663650D01*
X140532184Y-130658666D01*
X140476251Y-130616794D01*
X140469985Y-130607588D01*
X140430112Y-130542944D01*
X140306056Y-130418888D01*
X140171802Y-130336080D01*
X140125079Y-130284133D01*
X140112900Y-130230542D01*
X140112900Y-129526983D01*
X149467700Y-129526983D01*
X149467700Y-131077001D01*
X149467701Y-131077018D01*
X149478200Y-131179796D01*
X149478201Y-131179799D01*
X149524094Y-131318294D01*
X149533386Y-131346334D01*
X149625488Y-131495656D01*
X149749544Y-131619712D01*
X149898866Y-131711814D01*
X150065403Y-131766999D01*
X150168191Y-131777500D01*
X151468208Y-131777499D01*
X151570997Y-131766999D01*
X151737534Y-131711814D01*
X151886856Y-131619712D01*
X152010912Y-131495656D01*
X152103014Y-131346334D01*
X152103014Y-131346331D01*
X152106378Y-131340879D01*
X152158326Y-131294154D01*
X152227288Y-131282931D01*
X152291370Y-131310774D01*
X152299598Y-131318294D01*
X152438413Y-131457109D01*
X152610379Y-131582048D01*
X152610381Y-131582049D01*
X152610384Y-131582051D01*
X152799788Y-131678557D01*
X153001957Y-131744246D01*
X153211913Y-131777500D01*
X153211914Y-131777500D01*
X153424486Y-131777500D01*
X153424487Y-131777500D01*
X153634443Y-131744246D01*
X153836612Y-131678557D01*
X154026016Y-131582051D01*
X154047989Y-131566086D01*
X154197986Y-131457109D01*
X154197988Y-131457106D01*
X154197992Y-131457104D01*
X154348304Y-131306792D01*
X154467883Y-131142204D01*
X154523211Y-131099540D01*
X154592824Y-131093561D01*
X154654620Y-131126166D01*
X154668513Y-131142199D01*
X154765018Y-131275028D01*
X154788096Y-131306792D01*
X154938413Y-131457109D01*
X155110379Y-131582048D01*
X155110381Y-131582049D01*
X155110384Y-131582051D01*
X155299788Y-131678557D01*
X155501957Y-131744246D01*
X155711913Y-131777500D01*
X155711914Y-131777500D01*
X155924486Y-131777500D01*
X155924487Y-131777500D01*
X156134443Y-131744246D01*
X156336612Y-131678557D01*
X156526016Y-131582051D01*
X156547989Y-131566086D01*
X156697986Y-131457109D01*
X156697988Y-131457106D01*
X156697992Y-131457104D01*
X156848304Y-131306792D01*
X156967883Y-131142204D01*
X157023211Y-131099540D01*
X157092824Y-131093561D01*
X157154620Y-131126166D01*
X157168513Y-131142199D01*
X157265018Y-131275028D01*
X157288096Y-131306792D01*
X157438413Y-131457109D01*
X157610379Y-131582048D01*
X157610381Y-131582049D01*
X157610384Y-131582051D01*
X157799788Y-131678557D01*
X158001957Y-131744246D01*
X158211913Y-131777500D01*
X158211914Y-131777500D01*
X158424486Y-131777500D01*
X158424487Y-131777500D01*
X158634443Y-131744246D01*
X158836612Y-131678557D01*
X159026016Y-131582051D01*
X159047989Y-131566086D01*
X159197986Y-131457109D01*
X159197988Y-131457106D01*
X159197992Y-131457104D01*
X159348304Y-131306792D01*
X159468191Y-131141779D01*
X159523520Y-131099115D01*
X159593133Y-131093136D01*
X159654929Y-131125741D01*
X159668827Y-131141781D01*
X159788472Y-131306459D01*
X159788476Y-131306464D01*
X159938735Y-131456723D01*
X159938740Y-131456727D01*
X160110642Y-131581620D01*
X160299982Y-131678095D01*
X160502071Y-131743757D01*
X160568200Y-131754231D01*
X160568200Y-130706145D01*
X160634857Y-130744630D01*
X160755665Y-130777000D01*
X160880735Y-130777000D01*
X161001543Y-130744630D01*
X161068200Y-130706145D01*
X161068200Y-131754230D01*
X161134326Y-131743757D01*
X161134329Y-131743757D01*
X161336417Y-131678095D01*
X161525757Y-131581620D01*
X161697659Y-131456727D01*
X161697664Y-131456723D01*
X161847923Y-131306464D01*
X161847927Y-131306459D01*
X161972820Y-131134557D01*
X162069295Y-130945217D01*
X162134957Y-130743130D01*
X162134957Y-130743127D01*
X162165230Y-130552000D01*
X161222346Y-130552000D01*
X161260830Y-130485343D01*
X161293200Y-130364535D01*
X161293200Y-130239465D01*
X161260830Y-130118657D01*
X161222346Y-130052000D01*
X162165230Y-130052000D01*
X162134957Y-129860872D01*
X162134957Y-129860869D01*
X162069295Y-129658782D01*
X161972820Y-129469442D01*
X161847927Y-129297540D01*
X161847923Y-129297535D01*
X161697664Y-129147276D01*
X161697659Y-129147272D01*
X161525757Y-129022379D01*
X161336415Y-128925903D01*
X161134324Y-128860241D01*
X161068200Y-128849768D01*
X161068200Y-129897854D01*
X161001543Y-129859370D01*
X160880735Y-129827000D01*
X160755665Y-129827000D01*
X160634857Y-129859370D01*
X160568200Y-129897854D01*
X160568200Y-128849768D01*
X160568199Y-128849768D01*
X160502075Y-128860241D01*
X160299984Y-128925903D01*
X160110642Y-129022379D01*
X159938740Y-129147272D01*
X159938735Y-129147276D01*
X159788476Y-129297535D01*
X159788472Y-129297540D01*
X159668827Y-129462218D01*
X159613497Y-129504884D01*
X159543884Y-129510863D01*
X159482089Y-129478257D01*
X159468191Y-129462218D01*
X159348309Y-129297214D01*
X159348305Y-129297209D01*
X159197986Y-129146890D01*
X159026020Y-129021951D01*
X158836614Y-128925444D01*
X158836613Y-128925443D01*
X158836612Y-128925443D01*
X158634443Y-128859754D01*
X158634441Y-128859753D01*
X158634440Y-128859753D01*
X158473157Y-128834208D01*
X158424487Y-128826500D01*
X158406941Y-128826500D01*
X158339902Y-128806815D01*
X158294147Y-128754011D01*
X158284203Y-128684853D01*
X158313228Y-128621297D01*
X158319260Y-128614819D01*
X160023315Y-126910765D01*
X160099081Y-126779535D01*
X160138300Y-126633167D01*
X160138300Y-126481634D01*
X160138300Y-119759340D01*
X160157985Y-119692301D01*
X160174622Y-119671656D01*
X160184587Y-119661691D01*
X160184589Y-119661689D01*
X160272194Y-119530579D01*
X160332537Y-119384897D01*
X160363300Y-119230242D01*
X160363300Y-119072558D01*
X160363300Y-119072555D01*
X160363299Y-119072553D01*
X160355250Y-119032090D01*
X160332537Y-118917903D01*
X160316589Y-118879400D01*
X160272197Y-118772227D01*
X160272190Y-118772214D01*
X160184589Y-118641111D01*
X160184586Y-118641107D01*
X160073092Y-118529613D01*
X160073088Y-118529610D01*
X159941985Y-118442009D01*
X159941972Y-118442002D01*
X159796301Y-118381664D01*
X159796289Y-118381661D01*
X159641645Y-118350900D01*
X159641642Y-118350900D01*
X159483958Y-118350900D01*
X159483955Y-118350900D01*
X159329310Y-118381661D01*
X159329298Y-118381664D01*
X159183627Y-118442002D01*
X159183614Y-118442009D01*
X159052511Y-118529610D01*
X159052507Y-118529613D01*
X158941013Y-118641107D01*
X158941010Y-118641111D01*
X158853409Y-118772214D01*
X158853402Y-118772227D01*
X158793064Y-118917898D01*
X158793061Y-118917910D01*
X158762300Y-119072553D01*
X158762300Y-119230246D01*
X158793061Y-119384889D01*
X158793064Y-119384901D01*
X158853402Y-119530572D01*
X158853409Y-119530585D01*
X158941010Y-119661688D01*
X158941012Y-119661691D01*
X158950978Y-119671656D01*
X158984465Y-119732978D01*
X158987300Y-119759340D01*
X158987300Y-126267657D01*
X158967615Y-126334696D01*
X158950981Y-126355338D01*
X156423751Y-128882567D01*
X156362428Y-128916052D01*
X156297753Y-128912817D01*
X156134443Y-128859754D01*
X156134441Y-128859753D01*
X156134440Y-128859753D01*
X155973157Y-128834208D01*
X155924487Y-128826500D01*
X155711913Y-128826500D01*
X155663242Y-128834208D01*
X155501960Y-128859753D01*
X155299785Y-128925444D01*
X155110379Y-129021951D01*
X154938413Y-129146890D01*
X154788094Y-129297209D01*
X154788090Y-129297214D01*
X154668518Y-129461793D01*
X154613189Y-129504459D01*
X154543575Y-129510438D01*
X154481780Y-129477833D01*
X154467882Y-129461793D01*
X154348309Y-129297214D01*
X154348305Y-129297209D01*
X154197986Y-129146890D01*
X154026020Y-129021951D01*
X153836614Y-128925444D01*
X153836613Y-128925443D01*
X153836612Y-128925443D01*
X153634443Y-128859754D01*
X153634441Y-128859753D01*
X153634440Y-128859753D01*
X153473157Y-128834208D01*
X153424487Y-128826500D01*
X153211913Y-128826500D01*
X153163242Y-128834208D01*
X153001960Y-128859753D01*
X152799785Y-128925444D01*
X152610379Y-129021951D01*
X152438415Y-129146889D01*
X152299598Y-129285706D01*
X152238275Y-129319190D01*
X152168583Y-129314206D01*
X152112650Y-129272334D01*
X152106378Y-129263120D01*
X152010912Y-129108344D01*
X151886857Y-128984289D01*
X151886856Y-128984288D01*
X151776227Y-128916052D01*
X151737536Y-128892187D01*
X151737531Y-128892185D01*
X151736062Y-128891698D01*
X151570997Y-128837001D01*
X151570995Y-128837000D01*
X151468210Y-128826500D01*
X150168198Y-128826500D01*
X150168181Y-128826501D01*
X150065403Y-128837000D01*
X150065400Y-128837001D01*
X149898868Y-128892185D01*
X149898863Y-128892187D01*
X149749542Y-128984289D01*
X149625489Y-129108342D01*
X149533387Y-129257663D01*
X149533385Y-129257668D01*
X149528525Y-129272334D01*
X149478201Y-129424203D01*
X149478201Y-129424204D01*
X149478200Y-129424204D01*
X149467700Y-129526983D01*
X140112900Y-129526983D01*
X140112900Y-126559951D01*
X140132585Y-126492912D01*
X140149214Y-126472275D01*
X142568288Y-124053200D01*
X146482700Y-124053200D01*
X146493308Y-124172525D01*
X146493309Y-124172528D01*
X146549257Y-124368061D01*
X146643421Y-124548329D01*
X146771946Y-124705953D01*
X146929570Y-124834478D01*
X147109838Y-124928642D01*
X147305371Y-124984590D01*
X147305374Y-124984591D01*
X147424699Y-124995199D01*
X147424702Y-124995200D01*
X148632700Y-124995200D01*
X149132700Y-124995200D01*
X150340698Y-124995200D01*
X150340700Y-124995199D01*
X150460025Y-124984591D01*
X150460028Y-124984590D01*
X150655561Y-124928642D01*
X150835829Y-124834478D01*
X150993453Y-124705953D01*
X151121978Y-124548329D01*
X151216142Y-124368061D01*
X151272090Y-124172528D01*
X151272091Y-124172525D01*
X151282699Y-124053200D01*
X151282700Y-124053198D01*
X151282700Y-123745200D01*
X149132700Y-123745200D01*
X149132700Y-124995200D01*
X148632700Y-124995200D01*
X148632700Y-123745200D01*
X146482700Y-123745200D01*
X146482700Y-124053200D01*
X142568288Y-124053200D01*
X143104871Y-123516617D01*
X143166194Y-123483133D01*
X143192552Y-123480299D01*
X143630438Y-123480299D01*
X143630444Y-123480299D01*
X143630452Y-123480298D01*
X143630455Y-123480298D01*
X143684860Y-123474740D01*
X143729808Y-123470149D01*
X143890797Y-123416803D01*
X144035144Y-123327768D01*
X144155068Y-123207844D01*
X144244103Y-123063497D01*
X144297449Y-122902508D01*
X144307600Y-122803145D01*
X144307599Y-122256456D01*
X144307598Y-122256447D01*
X144307561Y-122255718D01*
X144307599Y-122255559D01*
X144307599Y-122253299D01*
X144308139Y-122253299D01*
X144323811Y-122187764D01*
X144374219Y-122139382D01*
X144432302Y-122127989D01*
X144432302Y-122125500D01*
X146640445Y-122125500D01*
X146707484Y-122145185D01*
X146753239Y-122197989D01*
X146763183Y-122267147D01*
X146736547Y-122327861D01*
X146643421Y-122442070D01*
X146549257Y-122622338D01*
X146493309Y-122817871D01*
X146493308Y-122817874D01*
X146482700Y-122937199D01*
X146482700Y-123245200D01*
X151282700Y-123245200D01*
X151282700Y-122937202D01*
X151282699Y-122937199D01*
X151272091Y-122817874D01*
X151272090Y-122817871D01*
X151216142Y-122622338D01*
X151121978Y-122442070D01*
X150993453Y-122284446D01*
X150879537Y-122191560D01*
X150840020Y-122133939D01*
X150837928Y-122064100D01*
X150872606Y-122005451D01*
X150880249Y-121998208D01*
X150898733Y-121985858D01*
X150985858Y-121898733D01*
X150985859Y-121898730D01*
X151668558Y-121216033D01*
X151737012Y-121113585D01*
X151784163Y-120999751D01*
X151808201Y-120878906D01*
X151808201Y-120755693D01*
X151808201Y-120750583D01*
X151808200Y-120750557D01*
X151808200Y-118929386D01*
X153234301Y-118929386D01*
X153244794Y-119032097D01*
X153299941Y-119198519D01*
X153299943Y-119198524D01*
X153391984Y-119347745D01*
X153515954Y-119471715D01*
X153665175Y-119563756D01*
X153665180Y-119563758D01*
X153831602Y-119618905D01*
X153831609Y-119618906D01*
X153934319Y-119629399D01*
X154209299Y-119629399D01*
X154709300Y-119629399D01*
X154984272Y-119629399D01*
X154984286Y-119629398D01*
X155086997Y-119618905D01*
X155253419Y-119563758D01*
X155253424Y-119563756D01*
X155402645Y-119471715D01*
X155526615Y-119347745D01*
X155618656Y-119198524D01*
X155618658Y-119198519D01*
X155673805Y-119032097D01*
X155673806Y-119032090D01*
X155684299Y-118929386D01*
X155684300Y-118929373D01*
X155684300Y-118879400D01*
X154709300Y-118879400D01*
X154709300Y-119629399D01*
X154209299Y-119629399D01*
X154209300Y-119629398D01*
X154209300Y-118879400D01*
X153234301Y-118879400D01*
X153234301Y-118929386D01*
X151808200Y-118929386D01*
X151808200Y-118750136D01*
X151827885Y-118683097D01*
X151877106Y-118639048D01*
X152031992Y-118562232D01*
X152031992Y-118562231D01*
X152031996Y-118562230D01*
X152180422Y-118442922D01*
X152299730Y-118294496D01*
X152307267Y-118279300D01*
X152384339Y-118123897D01*
X152384338Y-118123897D01*
X152384341Y-118123893D01*
X152430300Y-117939089D01*
X152433200Y-117896323D01*
X152433200Y-117478900D01*
X152452885Y-117411861D01*
X152505689Y-117366106D01*
X152557200Y-117354900D01*
X153264922Y-117354900D01*
X153331961Y-117374585D01*
X153370459Y-117413801D01*
X153391588Y-117448056D01*
X153515644Y-117572112D01*
X153518928Y-117574137D01*
X153518953Y-117574153D01*
X153520745Y-117576146D01*
X153521311Y-117576593D01*
X153521234Y-117576689D01*
X153565679Y-117626099D01*
X153576903Y-117695061D01*
X153549061Y-117759144D01*
X153518965Y-117785226D01*
X153515960Y-117787079D01*
X153515955Y-117787083D01*
X153391984Y-117911054D01*
X153299943Y-118060275D01*
X153299941Y-118060280D01*
X153244794Y-118226702D01*
X153244793Y-118226709D01*
X153234300Y-118329413D01*
X153234300Y-118379400D01*
X155684299Y-118379400D01*
X155684299Y-118329428D01*
X155684298Y-118329413D01*
X155673805Y-118226702D01*
X155618658Y-118060280D01*
X155618656Y-118060275D01*
X155526615Y-117911054D01*
X155402644Y-117787083D01*
X155402641Y-117787081D01*
X155399639Y-117785229D01*
X155398013Y-117783421D01*
X155396977Y-117782602D01*
X155397117Y-117782424D01*
X155352917Y-117733280D01*
X155341697Y-117664317D01*
X155369543Y-117600236D01*
X155399644Y-117574154D01*
X155402956Y-117572112D01*
X155527012Y-117448056D01*
X155619114Y-117298734D01*
X155674299Y-117132197D01*
X155684800Y-117029409D01*
X155684799Y-116429392D01*
X155680785Y-116390102D01*
X155674299Y-116326603D01*
X155674298Y-116326600D01*
X155654384Y-116266503D01*
X155619114Y-116160066D01*
X155527012Y-116010744D01*
X155402956Y-115886688D01*
X155253634Y-115794586D01*
X155087097Y-115739401D01*
X155087095Y-115739400D01*
X154984310Y-115728900D01*
X153934298Y-115728900D01*
X153934280Y-115728901D01*
X153831503Y-115739400D01*
X153831500Y-115739401D01*
X153664968Y-115794585D01*
X153664963Y-115794587D01*
X153515642Y-115886689D01*
X153391589Y-116010742D01*
X153370461Y-116044997D01*
X153318513Y-116091721D01*
X153264922Y-116103900D01*
X152388400Y-116103900D01*
X152321361Y-116084215D01*
X152275606Y-116031411D01*
X152264400Y-115979900D01*
X152264400Y-115045946D01*
X152284085Y-114978907D01*
X152311496Y-114948674D01*
X152316932Y-114944375D01*
X152316944Y-114944368D01*
X152436868Y-114824444D01*
X152525903Y-114680097D01*
X152579249Y-114519108D01*
X152589400Y-114419745D01*
X152589399Y-113753915D01*
X156240600Y-113753915D01*
X156251007Y-113855773D01*
X156305694Y-114020809D01*
X156305696Y-114020814D01*
X156396970Y-114168791D01*
X156519908Y-114291729D01*
X156667885Y-114383003D01*
X156667890Y-114383005D01*
X156832926Y-114437692D01*
X156934784Y-114448099D01*
X156934797Y-114448100D01*
X157190600Y-114448100D01*
X157690600Y-114448100D01*
X157946403Y-114448100D01*
X157946415Y-114448099D01*
X158048273Y-114437692D01*
X158213309Y-114383005D01*
X158213314Y-114383003D01*
X158361291Y-114291729D01*
X158484229Y-114168791D01*
X158575503Y-114020814D01*
X158575505Y-114020809D01*
X158630192Y-113855773D01*
X158640599Y-113753915D01*
X158640600Y-113753902D01*
X158640600Y-113710600D01*
X157690600Y-113710600D01*
X157690600Y-114448100D01*
X157190600Y-114448100D01*
X157190600Y-113710600D01*
X156240600Y-113710600D01*
X156240600Y-113753915D01*
X152589399Y-113753915D01*
X152589399Y-113704315D01*
X159771200Y-113704315D01*
X159781607Y-113806173D01*
X159836294Y-113971209D01*
X159836296Y-113971214D01*
X159927570Y-114119191D01*
X160050508Y-114242129D01*
X160198485Y-114333403D01*
X160198490Y-114333405D01*
X160363526Y-114388092D01*
X160465384Y-114398499D01*
X160465397Y-114398500D01*
X160721200Y-114398500D01*
X161221200Y-114398500D01*
X161477003Y-114398500D01*
X161477015Y-114398499D01*
X161578873Y-114388092D01*
X161743909Y-114333405D01*
X161743914Y-114333403D01*
X161891891Y-114242129D01*
X162014829Y-114119191D01*
X162106103Y-113971214D01*
X162106105Y-113971209D01*
X162160792Y-113806173D01*
X162171199Y-113704315D01*
X162171200Y-113704302D01*
X162171200Y-113661000D01*
X161221200Y-113661000D01*
X161221200Y-114398500D01*
X160721200Y-114398500D01*
X160721200Y-113661000D01*
X159771200Y-113661000D01*
X159771200Y-113704315D01*
X152589399Y-113704315D01*
X152589399Y-113573056D01*
X152579249Y-113473692D01*
X152525903Y-113312703D01*
X152525899Y-113312697D01*
X152525898Y-113312694D01*
X152436870Y-113168359D01*
X152436867Y-113168355D01*
X152316944Y-113048432D01*
X152316940Y-113048429D01*
X152172605Y-112959401D01*
X152172599Y-112959398D01*
X152172597Y-112959397D01*
X152172594Y-112959396D01*
X152011609Y-112906051D01*
X151912246Y-112895900D01*
X151365562Y-112895900D01*
X151365544Y-112895901D01*
X151266192Y-112906050D01*
X151266189Y-112906051D01*
X151105205Y-112959396D01*
X151105194Y-112959401D01*
X150960859Y-113048429D01*
X150960855Y-113048432D01*
X150840932Y-113168355D01*
X150840929Y-113168359D01*
X150751901Y-113312694D01*
X150751896Y-113312705D01*
X150698551Y-113473690D01*
X150688400Y-113573047D01*
X150688400Y-114419737D01*
X150688401Y-114419755D01*
X150698550Y-114519107D01*
X150698551Y-114519110D01*
X150751896Y-114680094D01*
X150751901Y-114680105D01*
X150840929Y-114824440D01*
X150840932Y-114824444D01*
X150960856Y-114944368D01*
X150960863Y-114944372D01*
X150966304Y-114948674D01*
X151006685Y-115005693D01*
X151013400Y-115045946D01*
X151013400Y-115570700D01*
X150993715Y-115637739D01*
X150940911Y-115683494D01*
X150889401Y-115694700D01*
X150731578Y-115694700D01*
X150731574Y-115694701D01*
X150688813Y-115697599D01*
X150688812Y-115697599D01*
X150504003Y-115743560D01*
X150333407Y-115828167D01*
X150333404Y-115828169D01*
X150184980Y-115947476D01*
X150184978Y-115947478D01*
X150182880Y-115950088D01*
X150129026Y-116017085D01*
X150071682Y-116057003D01*
X150001860Y-116059583D01*
X149941727Y-116024004D01*
X149935731Y-116017084D01*
X149880064Y-115947830D01*
X149731725Y-115828592D01*
X149731722Y-115828590D01*
X149561223Y-115744031D01*
X149376524Y-115698097D01*
X149333797Y-115695200D01*
X149132700Y-115695200D01*
X149132700Y-118695200D01*
X149333797Y-118695200D01*
X149376524Y-118692302D01*
X149561223Y-118646368D01*
X149731722Y-118561809D01*
X149731725Y-118561807D01*
X149880066Y-118442567D01*
X149880067Y-118442566D01*
X149935733Y-118373315D01*
X149993076Y-118333396D01*
X150062898Y-118330816D01*
X150123031Y-118366394D01*
X150129005Y-118373289D01*
X150184978Y-118442922D01*
X150184980Y-118442924D01*
X150333404Y-118562230D01*
X150333407Y-118562232D01*
X150488294Y-118639048D01*
X150539607Y-118686469D01*
X150557200Y-118750136D01*
X150557200Y-120506847D01*
X150537515Y-120573886D01*
X150520881Y-120594528D01*
X150277229Y-120838181D01*
X150215906Y-120871666D01*
X150189548Y-120874500D01*
X144810453Y-120874500D01*
X144743414Y-120854815D01*
X144722772Y-120838181D01*
X144061432Y-120176841D01*
X144027947Y-120115518D01*
X144032931Y-120045826D01*
X144061428Y-120001483D01*
X144155068Y-119907844D01*
X144244103Y-119763497D01*
X144297449Y-119602508D01*
X144307600Y-119503145D01*
X144307599Y-118956456D01*
X144304832Y-118929373D01*
X144297449Y-118857092D01*
X144297448Y-118857089D01*
X144271869Y-118779896D01*
X144244103Y-118696103D01*
X144244099Y-118696097D01*
X144244098Y-118696094D01*
X144155070Y-118551759D01*
X144155067Y-118551755D01*
X144035144Y-118431832D01*
X144035140Y-118431829D01*
X143986819Y-118402024D01*
X143940094Y-118350076D01*
X143928873Y-118281114D01*
X143956716Y-118217032D01*
X144009952Y-118180796D01*
X144009891Y-118180664D01*
X144010704Y-118180284D01*
X144012914Y-118178780D01*
X144016434Y-118177614D01*
X144165756Y-118085512D01*
X144289812Y-117961456D01*
X144381914Y-117812134D01*
X144409695Y-117728295D01*
X144449468Y-117670851D01*
X144513984Y-117644028D01*
X144527401Y-117643300D01*
X145208201Y-117643300D01*
X145275240Y-117662985D01*
X145320995Y-117715789D01*
X145332201Y-117767300D01*
X145332201Y-117896325D01*
X145335099Y-117939086D01*
X145335099Y-117939087D01*
X145381060Y-118123896D01*
X145465667Y-118294492D01*
X145465669Y-118294495D01*
X145584977Y-118442921D01*
X145584978Y-118442922D01*
X145733404Y-118562230D01*
X145733407Y-118562232D01*
X145904002Y-118646839D01*
X145904003Y-118646839D01*
X145904007Y-118646841D01*
X146088811Y-118692800D01*
X146131577Y-118695700D01*
X146521734Y-118695699D01*
X146588773Y-118715383D01*
X146634528Y-118768187D01*
X146643351Y-118795507D01*
X146651861Y-118838291D01*
X146651864Y-118838301D01*
X146712202Y-118983972D01*
X146712209Y-118983985D01*
X146799810Y-119115088D01*
X146799813Y-119115092D01*
X146911307Y-119226586D01*
X146911311Y-119226589D01*
X147042414Y-119314190D01*
X147042427Y-119314197D01*
X147188098Y-119374535D01*
X147188103Y-119374537D01*
X147342753Y-119405299D01*
X147342756Y-119405300D01*
X147342758Y-119405300D01*
X147500444Y-119405300D01*
X147500445Y-119405299D01*
X147655097Y-119374537D01*
X147800779Y-119314194D01*
X147931889Y-119226589D01*
X148043389Y-119115089D01*
X148130994Y-118983979D01*
X148191337Y-118838297D01*
X148202954Y-118779896D01*
X148235338Y-118717985D01*
X148296054Y-118683411D01*
X148354497Y-118683752D01*
X148388879Y-118692302D01*
X148431603Y-118695200D01*
X148632700Y-118695200D01*
X148632700Y-115695200D01*
X148431603Y-115695200D01*
X148388875Y-115698097D01*
X148204176Y-115744031D01*
X148033677Y-115828590D01*
X148033674Y-115828592D01*
X147885335Y-115947831D01*
X147829667Y-116017085D01*
X147772324Y-116057003D01*
X147702501Y-116059583D01*
X147642369Y-116024004D01*
X147636373Y-116017084D01*
X147580422Y-115947478D01*
X147580421Y-115947477D01*
X147431995Y-115828169D01*
X147431992Y-115828167D01*
X147261397Y-115743560D01*
X147076592Y-115697600D01*
X147055206Y-115696150D01*
X147033823Y-115694700D01*
X147033820Y-115694700D01*
X146131577Y-115694700D01*
X146131574Y-115694701D01*
X146088813Y-115697599D01*
X146088812Y-115697599D01*
X145904003Y-115743560D01*
X145733407Y-115828167D01*
X145733404Y-115828169D01*
X145584978Y-115947477D01*
X145584977Y-115947478D01*
X145465669Y-116095904D01*
X145465667Y-116095907D01*
X145381060Y-116266503D01*
X145381059Y-116266505D01*
X145373171Y-116298226D01*
X145337889Y-116358533D01*
X145275603Y-116390192D01*
X145252836Y-116392300D01*
X144527401Y-116392300D01*
X144460362Y-116372615D01*
X144414607Y-116319811D01*
X144409695Y-116307304D01*
X144396176Y-116266507D01*
X144381914Y-116223466D01*
X144289812Y-116074144D01*
X144165756Y-115950088D01*
X144165753Y-115950085D01*
X144131501Y-115928958D01*
X144084778Y-115877010D01*
X144072600Y-115823421D01*
X144072600Y-113560693D01*
X144072599Y-113560689D01*
X144061549Y-113505134D01*
X144048563Y-113439848D01*
X144033926Y-113404512D01*
X144020004Y-113370899D01*
X144001414Y-113326019D01*
X144001413Y-113326017D01*
X143975266Y-113286886D01*
X143970970Y-113280456D01*
X143932958Y-113223567D01*
X143845833Y-113136442D01*
X143845829Y-113136439D01*
X143523418Y-112814028D01*
X143489933Y-112752705D01*
X143487099Y-112726347D01*
X143487099Y-112061798D01*
X143487098Y-112061781D01*
X143476599Y-111959003D01*
X143476598Y-111959000D01*
X143467411Y-111931275D01*
X143421414Y-111792466D01*
X143329312Y-111643144D01*
X143205256Y-111519088D01*
X143055934Y-111426986D01*
X142969090Y-111398208D01*
X142925095Y-111383630D01*
X142867651Y-111343857D01*
X142840828Y-111279341D01*
X142840100Y-111265924D01*
X142840100Y-106540616D01*
X142859785Y-106473577D01*
X142912589Y-106427822D01*
X142925088Y-106422913D01*
X142983934Y-106403414D01*
X143133256Y-106311312D01*
X143257312Y-106187256D01*
X143290134Y-106134041D01*
X143342080Y-106087318D01*
X143411042Y-106076095D01*
X143475125Y-106103938D01*
X143513981Y-106162006D01*
X143517289Y-106174947D01*
X143527661Y-106227091D01*
X143527664Y-106227101D01*
X143588002Y-106372772D01*
X143588009Y-106372784D01*
X143651002Y-106467059D01*
X143671880Y-106533736D01*
X143671900Y-106535950D01*
X143671900Y-110016511D01*
X143695935Y-110137344D01*
X143695940Y-110137361D01*
X143743085Y-110251180D01*
X143743087Y-110251183D01*
X143743088Y-110251186D01*
X143777315Y-110302409D01*
X143811542Y-110353633D01*
X143898667Y-110440758D01*
X143898670Y-110440760D01*
X143905954Y-110448044D01*
X147352081Y-113894171D01*
X147385566Y-113955494D01*
X147388400Y-113981852D01*
X147388400Y-114419737D01*
X147388401Y-114419755D01*
X147398550Y-114519107D01*
X147398551Y-114519110D01*
X147451896Y-114680094D01*
X147451901Y-114680105D01*
X147540929Y-114824440D01*
X147540932Y-114824444D01*
X147660855Y-114944367D01*
X147660859Y-114944370D01*
X147805194Y-115033398D01*
X147805197Y-115033399D01*
X147805203Y-115033403D01*
X147966192Y-115086749D01*
X148065555Y-115096900D01*
X148612244Y-115096899D01*
X148612252Y-115096898D01*
X148612255Y-115096898D01*
X148666660Y-115091340D01*
X148711608Y-115086749D01*
X148872597Y-115033403D01*
X149016944Y-114944368D01*
X149136868Y-114824444D01*
X149225903Y-114680097D01*
X149279249Y-114519108D01*
X149289400Y-114419745D01*
X149289399Y-113573056D01*
X149279249Y-113473692D01*
X149225903Y-113312703D01*
X149225899Y-113312697D01*
X149225898Y-113312694D01*
X149136870Y-113168359D01*
X149136867Y-113168355D01*
X149016944Y-113048432D01*
X149016940Y-113048429D01*
X148872605Y-112959401D01*
X148872599Y-112959398D01*
X148872597Y-112959397D01*
X148872594Y-112959396D01*
X148711609Y-112906051D01*
X148612252Y-112895900D01*
X148612245Y-112895900D01*
X148174352Y-112895900D01*
X148107313Y-112876215D01*
X148086671Y-112859581D01*
X144959219Y-109732129D01*
X144925734Y-109670806D01*
X144922900Y-109644448D01*
X144922900Y-107413466D01*
X144942585Y-107346427D01*
X144995389Y-107300672D01*
X145064547Y-107290728D01*
X145128103Y-107319753D01*
X145164606Y-107374462D01*
X145206841Y-107501919D01*
X145206843Y-107501924D01*
X145298884Y-107651145D01*
X145422854Y-107775115D01*
X145572075Y-107867156D01*
X145572080Y-107867158D01*
X145738502Y-107922305D01*
X145738509Y-107922306D01*
X145841219Y-107932799D01*
X146116199Y-107932799D01*
X146616200Y-107932799D01*
X146891172Y-107932799D01*
X146891186Y-107932798D01*
X146993897Y-107922305D01*
X147160319Y-107867158D01*
X147160324Y-107867156D01*
X147309545Y-107775115D01*
X147433515Y-107651145D01*
X147525556Y-107501924D01*
X147525558Y-107501919D01*
X147580705Y-107335497D01*
X147580706Y-107335490D01*
X147591199Y-107232786D01*
X147909801Y-107232786D01*
X147920294Y-107335497D01*
X147975441Y-107501919D01*
X147975443Y-107501924D01*
X148067484Y-107651145D01*
X148191454Y-107775115D01*
X148340675Y-107867156D01*
X148340680Y-107867158D01*
X148507102Y-107922305D01*
X148507109Y-107922306D01*
X148609819Y-107932799D01*
X148884799Y-107932799D01*
X149384800Y-107932799D01*
X149659772Y-107932799D01*
X149659786Y-107932798D01*
X149762497Y-107922305D01*
X149928919Y-107867158D01*
X149928924Y-107867156D01*
X150078145Y-107775115D01*
X150202115Y-107651145D01*
X150294156Y-107501924D01*
X150294158Y-107501919D01*
X150349305Y-107335497D01*
X150349306Y-107335490D01*
X150359799Y-107232786D01*
X150359800Y-107232773D01*
X150359800Y-107197186D01*
X150678401Y-107197186D01*
X150688894Y-107299897D01*
X150744041Y-107466319D01*
X150744043Y-107466324D01*
X150836084Y-107615545D01*
X150960054Y-107739515D01*
X151109275Y-107831556D01*
X151109280Y-107831558D01*
X151275702Y-107886705D01*
X151275709Y-107886706D01*
X151378419Y-107897199D01*
X151653399Y-107897199D01*
X152153400Y-107897199D01*
X152428372Y-107897199D01*
X152428386Y-107897198D01*
X152531097Y-107886705D01*
X152697519Y-107831558D01*
X152697524Y-107831556D01*
X152846745Y-107739515D01*
X152970715Y-107615545D01*
X153062756Y-107466324D01*
X153062758Y-107466319D01*
X153117905Y-107299897D01*
X153117906Y-107299890D01*
X153128399Y-107197186D01*
X153128400Y-107197173D01*
X153128400Y-107147200D01*
X152153400Y-107147200D01*
X152153400Y-107897199D01*
X151653399Y-107897199D01*
X151653400Y-107897198D01*
X151653400Y-107147200D01*
X150678401Y-107147200D01*
X150678401Y-107197186D01*
X150359800Y-107197186D01*
X150359800Y-107182800D01*
X149384800Y-107182800D01*
X149384800Y-107932799D01*
X148884799Y-107932799D01*
X148884800Y-107932798D01*
X148884800Y-107182800D01*
X147909801Y-107182800D01*
X147909801Y-107232786D01*
X147591199Y-107232786D01*
X147591200Y-107232773D01*
X147591200Y-107182800D01*
X146616200Y-107182800D01*
X146616200Y-107932799D01*
X146116199Y-107932799D01*
X146116200Y-107932798D01*
X146116200Y-107056800D01*
X146135885Y-106989761D01*
X146188689Y-106944006D01*
X146240200Y-106932800D01*
X146366200Y-106932800D01*
X146366200Y-106806800D01*
X146385885Y-106739761D01*
X146438689Y-106694006D01*
X146490200Y-106682800D01*
X147591199Y-106682800D01*
X147591199Y-106632828D01*
X147591198Y-106632813D01*
X147580705Y-106530102D01*
X147525558Y-106363680D01*
X147525556Y-106363675D01*
X147433515Y-106214454D01*
X147309544Y-106090483D01*
X147309541Y-106090481D01*
X147306539Y-106088629D01*
X147304913Y-106086821D01*
X147303877Y-106086002D01*
X147304017Y-106085824D01*
X147259817Y-106036680D01*
X147248597Y-105967717D01*
X147276443Y-105903636D01*
X147306544Y-105877554D01*
X147309856Y-105875512D01*
X147433912Y-105751456D01*
X147455039Y-105717202D01*
X147506987Y-105670479D01*
X147560578Y-105658300D01*
X147940422Y-105658300D01*
X148007461Y-105677985D01*
X148045959Y-105717201D01*
X148067088Y-105751456D01*
X148191144Y-105875512D01*
X148194428Y-105877537D01*
X148194453Y-105877553D01*
X148196245Y-105879546D01*
X148196811Y-105879993D01*
X148196734Y-105880089D01*
X148241179Y-105929499D01*
X148252403Y-105998461D01*
X148224561Y-106062544D01*
X148194465Y-106088626D01*
X148191460Y-106090479D01*
X148191455Y-106090483D01*
X148067484Y-106214454D01*
X147975443Y-106363675D01*
X147975441Y-106363680D01*
X147920294Y-106530102D01*
X147920293Y-106530109D01*
X147909800Y-106632813D01*
X147909800Y-106682800D01*
X150359799Y-106682800D01*
X150359799Y-106632828D01*
X150359798Y-106632813D01*
X150349305Y-106530102D01*
X150294158Y-106363680D01*
X150294156Y-106363675D01*
X150202115Y-106214454D01*
X150078144Y-106090483D01*
X150078141Y-106090481D01*
X150075139Y-106088629D01*
X150073513Y-106086821D01*
X150072477Y-106086002D01*
X150072617Y-106085824D01*
X150028417Y-106036680D01*
X150017197Y-105967717D01*
X150045043Y-105903636D01*
X150075144Y-105877554D01*
X150078456Y-105875512D01*
X150202512Y-105751456D01*
X150245598Y-105681602D01*
X150297545Y-105634879D01*
X150351136Y-105622700D01*
X150709022Y-105622700D01*
X150776061Y-105642385D01*
X150814559Y-105681601D01*
X150835688Y-105715856D01*
X150959744Y-105839912D01*
X150963028Y-105841937D01*
X150963053Y-105841953D01*
X150964845Y-105843946D01*
X150965411Y-105844393D01*
X150965334Y-105844489D01*
X151009779Y-105893899D01*
X151021003Y-105962861D01*
X150993161Y-106026944D01*
X150963065Y-106053026D01*
X150960060Y-106054879D01*
X150960055Y-106054883D01*
X150836084Y-106178854D01*
X150744043Y-106328075D01*
X150744041Y-106328080D01*
X150688894Y-106494502D01*
X150688893Y-106494509D01*
X150678400Y-106597213D01*
X150678400Y-106647200D01*
X153128399Y-106647200D01*
X153128399Y-106597228D01*
X153128398Y-106597213D01*
X153117905Y-106494502D01*
X153062758Y-106328080D01*
X153062756Y-106328075D01*
X152970715Y-106178854D01*
X152846744Y-106054883D01*
X152846741Y-106054881D01*
X152843739Y-106053029D01*
X152842113Y-106051221D01*
X152841077Y-106050402D01*
X152841217Y-106050224D01*
X152797017Y-106001080D01*
X152785797Y-105932117D01*
X152813643Y-105868036D01*
X152843744Y-105841954D01*
X152847056Y-105839912D01*
X152971112Y-105715856D01*
X152992239Y-105681602D01*
X153044187Y-105634879D01*
X153097778Y-105622700D01*
X156500314Y-105622700D01*
X156567353Y-105642385D01*
X156613108Y-105695189D01*
X156623052Y-105764347D01*
X156621931Y-105770891D01*
X156603300Y-105864553D01*
X156603300Y-106022246D01*
X156629633Y-106154630D01*
X156623406Y-106224221D01*
X156580543Y-106279399D01*
X156573113Y-106284359D01*
X156496547Y-106331585D01*
X156496543Y-106331588D01*
X156372489Y-106455642D01*
X156280387Y-106604963D01*
X156280385Y-106604968D01*
X156271158Y-106632813D01*
X156225201Y-106771503D01*
X156225201Y-106771504D01*
X156225200Y-106771504D01*
X156214700Y-106874283D01*
X156214700Y-107499301D01*
X156214701Y-107499319D01*
X156225200Y-107602096D01*
X156225201Y-107602099D01*
X156265662Y-107724200D01*
X156280386Y-107768634D01*
X156359684Y-107897198D01*
X156372489Y-107917957D01*
X156466151Y-108011619D01*
X156499636Y-108072942D01*
X156494652Y-108142634D01*
X156466151Y-108186981D01*
X156372489Y-108280642D01*
X156280387Y-108429963D01*
X156280386Y-108429966D01*
X156225201Y-108596503D01*
X156225201Y-108596504D01*
X156225200Y-108596504D01*
X156214700Y-108699283D01*
X156214700Y-109324301D01*
X156214701Y-109324319D01*
X156225200Y-109427096D01*
X156225201Y-109427099D01*
X156280385Y-109593631D01*
X156280386Y-109593634D01*
X156372488Y-109742956D01*
X156496544Y-109867012D01*
X156645866Y-109959114D01*
X156754705Y-109995179D01*
X156812149Y-110034952D01*
X156838972Y-110099467D01*
X156839700Y-110112885D01*
X156839700Y-110516193D01*
X156820015Y-110583232D01*
X156767211Y-110628987D01*
X156754705Y-110633899D01*
X156667675Y-110662738D01*
X156667666Y-110662742D01*
X156519600Y-110754071D01*
X156519596Y-110754074D01*
X156396574Y-110877096D01*
X156396571Y-110877100D01*
X156305242Y-111025166D01*
X156305237Y-111025177D01*
X156250513Y-111190323D01*
X156240100Y-111292244D01*
X156240100Y-111878955D01*
X156250513Y-111980876D01*
X156305237Y-112146022D01*
X156305242Y-112146033D01*
X156396571Y-112294099D01*
X156396574Y-112294103D01*
X156519599Y-112417128D01*
X156520783Y-112417858D01*
X156521423Y-112418570D01*
X156525264Y-112421607D01*
X156524745Y-112422263D01*
X156567506Y-112469808D01*
X156578725Y-112538771D01*
X156550879Y-112602852D01*
X156525477Y-112624862D01*
X156525577Y-112624988D01*
X156522777Y-112627201D01*
X156520784Y-112628929D01*
X156519915Y-112629464D01*
X156519909Y-112629469D01*
X156396970Y-112752408D01*
X156305696Y-112900385D01*
X156305694Y-112900390D01*
X156251007Y-113065426D01*
X156240600Y-113167284D01*
X156240600Y-113210600D01*
X158640600Y-113210600D01*
X158640600Y-113167297D01*
X158640599Y-113167284D01*
X158630192Y-113065426D01*
X158575505Y-112900390D01*
X158575503Y-112900385D01*
X158484229Y-112752408D01*
X158361290Y-112629469D01*
X158361285Y-112629465D01*
X158360422Y-112628933D01*
X158359953Y-112628412D01*
X158355623Y-112624988D01*
X158356208Y-112624248D01*
X158313696Y-112576986D01*
X158302473Y-112508024D01*
X158330316Y-112443941D01*
X158355998Y-112421686D01*
X158355936Y-112421607D01*
X158357706Y-112420207D01*
X158360420Y-112417855D01*
X158361603Y-112417126D01*
X158484626Y-112294103D01*
X158575962Y-112146025D01*
X158630687Y-111980875D01*
X158641100Y-111878948D01*
X158641100Y-111292252D01*
X158630687Y-111190325D01*
X158575962Y-111025175D01*
X158575958Y-111025169D01*
X158575957Y-111025166D01*
X158484628Y-110877100D01*
X158484625Y-110877096D01*
X158361603Y-110754074D01*
X158361599Y-110754071D01*
X158213533Y-110662742D01*
X158213527Y-110662739D01*
X158213525Y-110662738D01*
X158213522Y-110662737D01*
X158075696Y-110617066D01*
X158018251Y-110577293D01*
X157991428Y-110512777D01*
X157990700Y-110499360D01*
X157990700Y-110112885D01*
X158010385Y-110045846D01*
X158063189Y-110000091D01*
X158075689Y-109995181D01*
X158184534Y-109959114D01*
X158333856Y-109867012D01*
X158457912Y-109742956D01*
X158550014Y-109593634D01*
X158605199Y-109427097D01*
X158615700Y-109324309D01*
X158615699Y-108699292D01*
X158605199Y-108596503D01*
X158550014Y-108429966D01*
X158457912Y-108280644D01*
X158364249Y-108186981D01*
X158330764Y-108125658D01*
X158335748Y-108055966D01*
X158364249Y-108011619D01*
X158406256Y-107969612D01*
X158457912Y-107917956D01*
X158550014Y-107768634D01*
X158605199Y-107602097D01*
X158615700Y-107499309D01*
X158615699Y-106874292D01*
X158613202Y-106849852D01*
X158605199Y-106771503D01*
X158605198Y-106771500D01*
X158579519Y-106694006D01*
X158550014Y-106604966D01*
X158457912Y-106455644D01*
X158333856Y-106331588D01*
X158236977Y-106271832D01*
X158190254Y-106219886D01*
X158179031Y-106150924D01*
X158180458Y-106142103D01*
X158204300Y-106022244D01*
X158204300Y-105864555D01*
X158204299Y-105864553D01*
X158185669Y-105770891D01*
X158191896Y-105701300D01*
X158234759Y-105646122D01*
X158300649Y-105622878D01*
X158307286Y-105622700D01*
X158568948Y-105622700D01*
X158635987Y-105642385D01*
X158656629Y-105659019D01*
X159759781Y-106762171D01*
X159793266Y-106823494D01*
X159796100Y-106849852D01*
X159796100Y-107426901D01*
X159796101Y-107426919D01*
X159806600Y-107529696D01*
X159806601Y-107529699D01*
X159861785Y-107696231D01*
X159861787Y-107696236D01*
X159953889Y-107845557D01*
X160047551Y-107939219D01*
X160081036Y-108000542D01*
X160076052Y-108070234D01*
X160047551Y-108114581D01*
X159953889Y-108208242D01*
X159861787Y-108357563D01*
X159861786Y-108357566D01*
X159806601Y-108524103D01*
X159806601Y-108524104D01*
X159806600Y-108524104D01*
X159796100Y-108626883D01*
X159796100Y-109251901D01*
X159796101Y-109251919D01*
X159806600Y-109354696D01*
X159806601Y-109354699D01*
X159837084Y-109446689D01*
X159861786Y-109521234D01*
X159953888Y-109670556D01*
X160077944Y-109794612D01*
X160227266Y-109886714D01*
X160336105Y-109922779D01*
X160393549Y-109962552D01*
X160420372Y-110027067D01*
X160421100Y-110040485D01*
X160421100Y-110449760D01*
X160401415Y-110516799D01*
X160348611Y-110562554D01*
X160336104Y-110567466D01*
X160198277Y-110613137D01*
X160198266Y-110613142D01*
X160050200Y-110704471D01*
X160050196Y-110704474D01*
X159927174Y-110827496D01*
X159927171Y-110827500D01*
X159835842Y-110975566D01*
X159835837Y-110975577D01*
X159781113Y-111140723D01*
X159770700Y-111242644D01*
X159770700Y-111829355D01*
X159781113Y-111931276D01*
X159835837Y-112096422D01*
X159835842Y-112096433D01*
X159927171Y-112244499D01*
X159927174Y-112244503D01*
X160050199Y-112367528D01*
X160051383Y-112368258D01*
X160052023Y-112368970D01*
X160055864Y-112372007D01*
X160055345Y-112372663D01*
X160098106Y-112420208D01*
X160109325Y-112489171D01*
X160081479Y-112553252D01*
X160056077Y-112575262D01*
X160056177Y-112575388D01*
X160053377Y-112577601D01*
X160051384Y-112579329D01*
X160050515Y-112579864D01*
X160050509Y-112579869D01*
X159927570Y-112702808D01*
X159836296Y-112850785D01*
X159836294Y-112850790D01*
X159781607Y-113015826D01*
X159771200Y-113117684D01*
X159771200Y-113161000D01*
X162171200Y-113161000D01*
X162171200Y-113117697D01*
X162171199Y-113117684D01*
X162160792Y-113015826D01*
X162106105Y-112850790D01*
X162106103Y-112850785D01*
X162014829Y-112702808D01*
X161891890Y-112579869D01*
X161891885Y-112579865D01*
X161891022Y-112579333D01*
X161890553Y-112578812D01*
X161886223Y-112575388D01*
X161886808Y-112574648D01*
X161844296Y-112527386D01*
X161833073Y-112458424D01*
X161860916Y-112394341D01*
X161886598Y-112372086D01*
X161886536Y-112372007D01*
X161888306Y-112370607D01*
X161891020Y-112368255D01*
X161892203Y-112367526D01*
X162015226Y-112244503D01*
X162106562Y-112096425D01*
X162161287Y-111931275D01*
X162171700Y-111829348D01*
X162171700Y-111242652D01*
X162161287Y-111140725D01*
X162106562Y-110975575D01*
X162106558Y-110975569D01*
X162106557Y-110975566D01*
X162015228Y-110827500D01*
X162015225Y-110827496D01*
X161892203Y-110704474D01*
X161892199Y-110704471D01*
X161744133Y-110613142D01*
X161744127Y-110613139D01*
X161744125Y-110613138D01*
X161695931Y-110597168D01*
X161657095Y-110584299D01*
X161599650Y-110544526D01*
X161572828Y-110480010D01*
X161572100Y-110466593D01*
X161572100Y-110040485D01*
X161591785Y-109973446D01*
X161644589Y-109927691D01*
X161657089Y-109922781D01*
X161765934Y-109886714D01*
X161915256Y-109794612D01*
X162039312Y-109670556D01*
X162131414Y-109521234D01*
X162186599Y-109354697D01*
X162197100Y-109251909D01*
X162197099Y-109054312D01*
X162216783Y-108987274D01*
X162269587Y-108941519D01*
X162338745Y-108931575D01*
X162389990Y-108951210D01*
X162409421Y-108964194D01*
X162409423Y-108964195D01*
X162409427Y-108964197D01*
X162465141Y-108987274D01*
X162555103Y-109024537D01*
X162704801Y-109054314D01*
X162709753Y-109055299D01*
X162709756Y-109055300D01*
X162709758Y-109055300D01*
X162867444Y-109055300D01*
X162867445Y-109055299D01*
X163022097Y-109024537D01*
X163167779Y-108964194D01*
X163298889Y-108876589D01*
X163298892Y-108876586D01*
X163335019Y-108840460D01*
X163396342Y-108806975D01*
X163466034Y-108811959D01*
X163521967Y-108853831D01*
X163546384Y-108919295D01*
X163546700Y-108928141D01*
X163546700Y-138005100D01*
X163527015Y-138072139D01*
X163474211Y-138117894D01*
X163422700Y-138129100D01*
X134671700Y-138129100D01*
X134604661Y-138109415D01*
X134558906Y-138056611D01*
X134547700Y-138005100D01*
X134547700Y-117542786D01*
X140547101Y-117542786D01*
X140557594Y-117645497D01*
X140612741Y-117811919D01*
X140612743Y-117811924D01*
X140704784Y-117961145D01*
X140828754Y-118085115D01*
X140977975Y-118177156D01*
X140977980Y-118177158D01*
X141144402Y-118232305D01*
X141144409Y-118232306D01*
X141247119Y-118242799D01*
X141297099Y-118242798D01*
X141297100Y-118242798D01*
X141297100Y-117267800D01*
X140547101Y-117267800D01*
X140547101Y-117542786D01*
X134547700Y-117542786D01*
X134547700Y-116492813D01*
X140547100Y-116492813D01*
X140547100Y-116767800D01*
X141297100Y-116767800D01*
X141297100Y-115792800D01*
X141297099Y-115792799D01*
X141247129Y-115792800D01*
X141247111Y-115792801D01*
X141144402Y-115803294D01*
X140977980Y-115858441D01*
X140977975Y-115858443D01*
X140828754Y-115950484D01*
X140704784Y-116074454D01*
X140612743Y-116223675D01*
X140612741Y-116223680D01*
X140557594Y-116390102D01*
X140557593Y-116390109D01*
X140547100Y-116492813D01*
X134547700Y-116492813D01*
X134547700Y-115122044D01*
X134967000Y-115122044D01*
X134973401Y-115181572D01*
X134973403Y-115181579D01*
X135023645Y-115316286D01*
X135023649Y-115316293D01*
X135109809Y-115431387D01*
X135109812Y-115431390D01*
X135224906Y-115517550D01*
X135224913Y-115517554D01*
X135359620Y-115567796D01*
X135359627Y-115567798D01*
X135419155Y-115574199D01*
X135419172Y-115574200D01*
X135767000Y-115574200D01*
X135767000Y-114424200D01*
X134967000Y-114424200D01*
X134967000Y-115122044D01*
X134547700Y-115122044D01*
X134547700Y-113226355D01*
X134967000Y-113226355D01*
X134967000Y-113924200D01*
X135767000Y-113924200D01*
X135767000Y-112774200D01*
X135419155Y-112774200D01*
X135359627Y-112780601D01*
X135359620Y-112780603D01*
X135224913Y-112830845D01*
X135224906Y-112830849D01*
X135109812Y-112917009D01*
X135109809Y-112917012D01*
X135023649Y-113032106D01*
X135023645Y-113032113D01*
X134973403Y-113166820D01*
X134973401Y-113166827D01*
X134967000Y-113226355D01*
X134547700Y-113226355D01*
X134547700Y-108922044D01*
X134967000Y-108922044D01*
X134973401Y-108981572D01*
X134973403Y-108981579D01*
X135023645Y-109116286D01*
X135023649Y-109116293D01*
X135109809Y-109231387D01*
X135109812Y-109231390D01*
X135224906Y-109317550D01*
X135224913Y-109317554D01*
X135359620Y-109367796D01*
X135359627Y-109367798D01*
X135419155Y-109374199D01*
X135419172Y-109374200D01*
X135767000Y-109374200D01*
X135767000Y-108224200D01*
X134967000Y-108224200D01*
X134967000Y-108922044D01*
X134547700Y-108922044D01*
X134547700Y-107026355D01*
X134967000Y-107026355D01*
X134967000Y-107724200D01*
X135767000Y-107724200D01*
X135767000Y-106499762D01*
X135771200Y-106485458D01*
X135771200Y-105331000D01*
X134971200Y-105331000D01*
X134971200Y-106028844D01*
X134977601Y-106088372D01*
X134977603Y-106088379D01*
X135027845Y-106223086D01*
X135027849Y-106223093D01*
X135114009Y-106338187D01*
X135114012Y-106338190D01*
X135232377Y-106426799D01*
X135274248Y-106482733D01*
X135279232Y-106552424D01*
X135245746Y-106613747D01*
X135231292Y-106624570D01*
X135232011Y-106625531D01*
X135109812Y-106717009D01*
X135109809Y-106717012D01*
X135023649Y-106832106D01*
X135023645Y-106832113D01*
X134973403Y-106966820D01*
X134973401Y-106966827D01*
X134967000Y-107026355D01*
X134547700Y-107026355D01*
X134547700Y-104133155D01*
X134971200Y-104133155D01*
X134971200Y-104831000D01*
X135771200Y-104831000D01*
X135771200Y-103681000D01*
X135423355Y-103681000D01*
X135363827Y-103687401D01*
X135363820Y-103687403D01*
X135229113Y-103737645D01*
X135229106Y-103737649D01*
X135114012Y-103823809D01*
X135114009Y-103823812D01*
X135027849Y-103938906D01*
X135027845Y-103938913D01*
X134977603Y-104073620D01*
X134977601Y-104073627D01*
X134971200Y-104133155D01*
X134547700Y-104133155D01*
X134547700Y-99828844D01*
X134971200Y-99828844D01*
X134977601Y-99888372D01*
X134977603Y-99888379D01*
X135027845Y-100023086D01*
X135027849Y-100023093D01*
X135114009Y-100138187D01*
X135114012Y-100138190D01*
X135229106Y-100224350D01*
X135229113Y-100224354D01*
X135363820Y-100274596D01*
X135363827Y-100274598D01*
X135423355Y-100280999D01*
X135423372Y-100281000D01*
X135771200Y-100281000D01*
X135771200Y-99131000D01*
X134971200Y-99131000D01*
X134971200Y-99828844D01*
X134547700Y-99828844D01*
X134547700Y-97933155D01*
X134971200Y-97933155D01*
X134971200Y-98631000D01*
X135771200Y-98631000D01*
X135771200Y-97481000D01*
X135423355Y-97481000D01*
X135363827Y-97487401D01*
X135363820Y-97487403D01*
X135229113Y-97537645D01*
X135229106Y-97537649D01*
X135114012Y-97623809D01*
X135114009Y-97623812D01*
X135027849Y-97738906D01*
X135027845Y-97738913D01*
X134977603Y-97873620D01*
X134977601Y-97873627D01*
X134971200Y-97933155D01*
X134547700Y-97933155D01*
X134547700Y-72240097D01*
X134567385Y-72173058D01*
X134620189Y-72127303D01*
X134689347Y-72117359D01*
X134710704Y-72122391D01*
X134855902Y-72170505D01*
X134855909Y-72170506D01*
X134958619Y-72180999D01*
X135233599Y-72180999D01*
X135733600Y-72180999D01*
X136008572Y-72180999D01*
X136008586Y-72180998D01*
X136111297Y-72170505D01*
X136277719Y-72115358D01*
X136277724Y-72115356D01*
X136426945Y-72023315D01*
X136550915Y-71899345D01*
X136642956Y-71750124D01*
X136642958Y-71750119D01*
X136698105Y-71583697D01*
X136698106Y-71583690D01*
X136708599Y-71480986D01*
X136708600Y-71480973D01*
X136708600Y-71431000D01*
X135733600Y-71431000D01*
X135733600Y-72180999D01*
X135233599Y-72180999D01*
X135233600Y-72180998D01*
X135233600Y-71305000D01*
X135253285Y-71237961D01*
X135306089Y-71192206D01*
X135357600Y-71181000D01*
X135483600Y-71181000D01*
X135483600Y-71055000D01*
X135503285Y-70987961D01*
X135556089Y-70942206D01*
X135607600Y-70931000D01*
X136708599Y-70931000D01*
X136708599Y-70881028D01*
X136708598Y-70881013D01*
X136698105Y-70778302D01*
X136642958Y-70611880D01*
X136642956Y-70611875D01*
X136550915Y-70462654D01*
X136426944Y-70338683D01*
X136426941Y-70338681D01*
X136423939Y-70336829D01*
X136422313Y-70335021D01*
X136421277Y-70334202D01*
X136421417Y-70334024D01*
X136377217Y-70284880D01*
X136365997Y-70215917D01*
X136393843Y-70151836D01*
X136423944Y-70125754D01*
X136427256Y-70123712D01*
X136551312Y-69999656D01*
X136643414Y-69850334D01*
X136698599Y-69683797D01*
X136709100Y-69581009D01*
X136709099Y-68980992D01*
X136698599Y-68878203D01*
X136643414Y-68711666D01*
X136551312Y-68562344D01*
X136427256Y-68438288D01*
X136427255Y-68438287D01*
X136326063Y-68375872D01*
X136279338Y-68323924D01*
X136268115Y-68254962D01*
X136295959Y-68190879D01*
X136326060Y-68164796D01*
X136452656Y-68086712D01*
X136576712Y-67962656D01*
X136576712Y-67962655D01*
X136581819Y-67957549D01*
X136583337Y-67959067D01*
X136631743Y-67924782D01*
X136701542Y-67921635D01*
X136761962Y-67956723D01*
G37*
%TD.AperFunction*%
%TA.AperFunction,Conductor*%
G36*
X139204996Y-62469585D02*
G01*
X139250751Y-62522389D01*
X139260695Y-62591547D01*
X139231670Y-62655103D01*
X139217887Y-62667934D01*
X139213809Y-62672012D01*
X139127649Y-62787106D01*
X139127645Y-62787113D01*
X139077403Y-62921820D01*
X139077401Y-62921827D01*
X139071000Y-62981355D01*
X139071000Y-63229200D01*
X141571000Y-63229200D01*
X141571000Y-62981372D01*
X141570999Y-62981355D01*
X141564598Y-62921827D01*
X141564596Y-62921820D01*
X141514354Y-62787113D01*
X141514350Y-62787106D01*
X141428190Y-62672012D01*
X141421918Y-62665740D01*
X141423207Y-62664450D01*
X141387862Y-62617236D01*
X141382876Y-62547544D01*
X141416360Y-62486220D01*
X141477683Y-62452734D01*
X141504043Y-62449900D01*
X156637957Y-62449900D01*
X156704996Y-62469585D01*
X156750751Y-62522389D01*
X156760695Y-62591547D01*
X156731670Y-62655103D01*
X156717887Y-62667934D01*
X156713809Y-62672012D01*
X156627649Y-62787106D01*
X156627645Y-62787113D01*
X156577403Y-62921820D01*
X156577401Y-62921827D01*
X156571000Y-62981355D01*
X156571000Y-63229200D01*
X159071000Y-63229200D01*
X159071000Y-62981372D01*
X159070999Y-62981355D01*
X159064598Y-62921827D01*
X159064596Y-62921820D01*
X159014354Y-62787113D01*
X159014350Y-62787106D01*
X158928190Y-62672012D01*
X158921918Y-62665740D01*
X158923207Y-62664450D01*
X158887862Y-62617236D01*
X158882876Y-62547544D01*
X158916360Y-62486220D01*
X158977683Y-62452734D01*
X159004043Y-62449900D01*
X163422700Y-62449900D01*
X163489739Y-62469585D01*
X163535494Y-62522389D01*
X163546700Y-62573900D01*
X163546700Y-107581459D01*
X163527015Y-107648498D01*
X163474211Y-107694253D01*
X163405053Y-107704197D01*
X163341497Y-107675172D01*
X163335019Y-107669140D01*
X163298892Y-107633013D01*
X163298888Y-107633010D01*
X163167785Y-107545409D01*
X163167772Y-107545402D01*
X163022101Y-107485064D01*
X163022089Y-107485061D01*
X162867445Y-107454300D01*
X162867442Y-107454300D01*
X162853342Y-107454300D01*
X162823901Y-107445655D01*
X162793915Y-107439132D01*
X162788899Y-107435377D01*
X162786303Y-107434615D01*
X162765661Y-107417981D01*
X162663819Y-107316139D01*
X162630334Y-107254816D01*
X162627500Y-107228458D01*
X162627500Y-89620008D01*
X162625724Y-89613381D01*
X162625723Y-89613377D01*
X162588281Y-89473638D01*
X162512515Y-89342408D01*
X160902160Y-87732053D01*
X160868675Y-87670730D01*
X160865841Y-87644372D01*
X160865841Y-87630269D01*
X160865840Y-87630267D01*
X160858169Y-87591701D01*
X160835078Y-87475617D01*
X160813054Y-87422446D01*
X160774738Y-87329941D01*
X160774731Y-87329928D01*
X160687130Y-87198825D01*
X160687127Y-87198821D01*
X160575633Y-87087327D01*
X160575629Y-87087324D01*
X160444526Y-86999723D01*
X160444513Y-86999716D01*
X160298842Y-86939378D01*
X160298832Y-86939375D01*
X160165650Y-86912883D01*
X160103739Y-86880498D01*
X160069165Y-86819782D01*
X160065842Y-86791266D01*
X160065842Y-68400778D01*
X160065842Y-68400776D01*
X160026623Y-68254407D01*
X159950857Y-68123177D01*
X159843707Y-68016027D01*
X159843706Y-68016026D01*
X159839376Y-68011696D01*
X159839365Y-68011686D01*
X159107818Y-67280138D01*
X159074333Y-67218815D01*
X159071499Y-67192457D01*
X159071499Y-66791329D01*
X159071498Y-66791323D01*
X159071497Y-66791316D01*
X159065091Y-66731717D01*
X159052340Y-66697532D01*
X159047357Y-66627842D01*
X159052340Y-66610869D01*
X159065091Y-66576683D01*
X159071500Y-66517073D01*
X159071499Y-65521328D01*
X159065091Y-65461717D01*
X159052340Y-65427532D01*
X159047357Y-65357842D01*
X159052340Y-65340869D01*
X159065091Y-65306683D01*
X159071500Y-65247073D01*
X159071499Y-64251328D01*
X159065091Y-64191717D01*
X159052073Y-64156816D01*
X159047090Y-64087126D01*
X159052075Y-64070149D01*
X159064597Y-64036575D01*
X159064598Y-64036572D01*
X159070999Y-63977044D01*
X159071000Y-63977027D01*
X159071000Y-63729200D01*
X156571000Y-63729200D01*
X156571000Y-63977044D01*
X156577401Y-64036572D01*
X156577403Y-64036579D01*
X156589925Y-64070152D01*
X156594909Y-64139843D01*
X156589925Y-64156817D01*
X156576909Y-64191714D01*
X156576908Y-64191716D01*
X156570501Y-64251316D01*
X156570501Y-64251323D01*
X156570500Y-64251335D01*
X156570500Y-65247070D01*
X156570501Y-65247076D01*
X156576908Y-65306681D01*
X156589659Y-65340869D01*
X156594642Y-65410561D01*
X156589659Y-65427531D01*
X156576908Y-65461718D01*
X156576018Y-65470000D01*
X156570501Y-65521323D01*
X156570500Y-65521335D01*
X156570500Y-66517070D01*
X156570501Y-66517076D01*
X156576908Y-66576681D01*
X156589659Y-66610869D01*
X156594642Y-66680561D01*
X156589659Y-66697531D01*
X156576908Y-66731718D01*
X156570501Y-66791316D01*
X156570501Y-66791323D01*
X156570500Y-66791335D01*
X156570500Y-67787070D01*
X156570501Y-67787076D01*
X156576908Y-67846681D01*
X156589659Y-67880869D01*
X156594673Y-67950415D01*
X156592781Y-67959158D01*
X156576909Y-68001717D01*
X156570500Y-68061327D01*
X156570500Y-68062173D01*
X156568928Y-68069441D01*
X156555237Y-68094584D01*
X156544281Y-68121034D01*
X156535532Y-68130773D01*
X156535516Y-68130803D01*
X156535495Y-68130814D01*
X156535412Y-68130907D01*
X154180235Y-70486085D01*
X154073087Y-70593232D01*
X154073085Y-70593235D01*
X153997319Y-70724463D01*
X153958100Y-70870834D01*
X153958100Y-78599259D01*
X153938415Y-78666298D01*
X153921781Y-78686940D01*
X153911813Y-78696907D01*
X153911810Y-78696911D01*
X153824209Y-78828014D01*
X153824202Y-78828027D01*
X153763864Y-78973698D01*
X153763861Y-78973708D01*
X153737369Y-79106892D01*
X153704984Y-79168803D01*
X153644268Y-79203377D01*
X153615752Y-79206700D01*
X151962453Y-79206700D01*
X151895414Y-79187015D01*
X151874772Y-79170381D01*
X143536819Y-70832428D01*
X143503334Y-70771105D01*
X143500500Y-70744747D01*
X143500500Y-66659594D01*
X143497378Y-66643900D01*
X143487592Y-66594700D01*
X143476463Y-66538748D01*
X143452011Y-66479715D01*
X143429312Y-66424914D01*
X143394332Y-66372565D01*
X143360858Y-66322467D01*
X143360856Y-66322464D01*
X143270637Y-66232245D01*
X143270606Y-66232216D01*
X141607818Y-64569428D01*
X141574333Y-64508105D01*
X141571499Y-64481747D01*
X141571499Y-64251329D01*
X141571498Y-64251323D01*
X141571497Y-64251316D01*
X141565091Y-64191717D01*
X141552073Y-64156816D01*
X141547090Y-64087126D01*
X141552075Y-64070149D01*
X141564597Y-64036575D01*
X141564598Y-64036572D01*
X141570999Y-63977044D01*
X141571000Y-63977027D01*
X141571000Y-63729200D01*
X139071000Y-63729200D01*
X139071000Y-63977044D01*
X139077401Y-64036572D01*
X139077403Y-64036579D01*
X139089925Y-64070152D01*
X139094909Y-64139843D01*
X139089925Y-64156817D01*
X139076909Y-64191714D01*
X139076908Y-64191716D01*
X139070501Y-64251316D01*
X139070501Y-64251323D01*
X139070500Y-64251335D01*
X139070500Y-64481745D01*
X139061855Y-64511185D01*
X139055332Y-64541172D01*
X139051577Y-64546187D01*
X139050815Y-64548784D01*
X139034181Y-64569426D01*
X139025615Y-64577992D01*
X138964292Y-64611477D01*
X138894600Y-64606493D01*
X138850253Y-64577992D01*
X138789145Y-64516884D01*
X138639924Y-64424843D01*
X138639919Y-64424841D01*
X138473497Y-64369694D01*
X138473490Y-64369693D01*
X138370786Y-64359200D01*
X138095800Y-64359200D01*
X138095800Y-65235200D01*
X138076115Y-65302239D01*
X138023311Y-65347994D01*
X137971800Y-65359200D01*
X137845800Y-65359200D01*
X137845800Y-65485200D01*
X137826115Y-65552239D01*
X137773311Y-65597994D01*
X137721800Y-65609200D01*
X136557362Y-65609200D01*
X136505597Y-65594000D01*
X135633000Y-65594000D01*
X135565961Y-65574315D01*
X135520206Y-65521511D01*
X135509000Y-65470000D01*
X135509000Y-65344000D01*
X135383000Y-65344000D01*
X135315961Y-65324315D01*
X135270206Y-65271511D01*
X135259000Y-65220000D01*
X135259000Y-65094000D01*
X135759000Y-65094000D01*
X136797438Y-65094000D01*
X136849203Y-65109200D01*
X137595800Y-65109200D01*
X137595800Y-64359200D01*
X137320829Y-64359200D01*
X137320812Y-64359201D01*
X137218102Y-64369694D01*
X137051680Y-64424841D01*
X137051675Y-64424843D01*
X136902454Y-64516884D01*
X136773376Y-64645963D01*
X136772005Y-64644592D01*
X136722983Y-64679298D01*
X136653183Y-64682431D01*
X136592771Y-64647329D01*
X136577213Y-64627107D01*
X136576321Y-64625661D01*
X136576316Y-64625655D01*
X136452345Y-64501684D01*
X136303124Y-64409643D01*
X136303119Y-64409641D01*
X136136697Y-64354494D01*
X136136690Y-64354493D01*
X136033986Y-64344000D01*
X135759000Y-64344000D01*
X135759000Y-65094000D01*
X135259000Y-65094000D01*
X135259000Y-64344000D01*
X134984029Y-64344000D01*
X134984012Y-64344001D01*
X134881302Y-64354494D01*
X134710704Y-64411025D01*
X134640876Y-64413427D01*
X134580834Y-64377695D01*
X134549641Y-64315175D01*
X134547700Y-64293319D01*
X134547700Y-62573900D01*
X134567385Y-62506861D01*
X134620189Y-62461106D01*
X134671700Y-62449900D01*
X139137957Y-62449900D01*
X139204996Y-62469585D01*
G37*
%TD.AperFunction*%
%TA.AperFunction,Conductor*%
G36*
X146543152Y-89899166D02*
G01*
X146583680Y-89956081D01*
X146590500Y-89996637D01*
X146590500Y-91055800D01*
X146570815Y-91122839D01*
X146518011Y-91168594D01*
X146510975Y-91170124D01*
X146501300Y-91179800D01*
X146501300Y-93579799D01*
X146515766Y-93594265D01*
X146533539Y-93599484D01*
X146579294Y-93652288D01*
X146590500Y-93703799D01*
X146590500Y-102404057D01*
X146629719Y-102550428D01*
X146648355Y-102582706D01*
X146705485Y-102681657D01*
X146705487Y-102681659D01*
X147235912Y-103212085D01*
X147246601Y-103224272D01*
X147260359Y-103242202D01*
X147269234Y-103253768D01*
X147392063Y-103348017D01*
X147392062Y-103348017D01*
X147450132Y-103372070D01*
X147535101Y-103407265D01*
X147650060Y-103422400D01*
X147826600Y-103422400D01*
X147893639Y-103442085D01*
X147939394Y-103494889D01*
X147950600Y-103546400D01*
X147950600Y-104283300D01*
X147930915Y-104350339D01*
X147878111Y-104396094D01*
X147826600Y-104407300D01*
X147560578Y-104407300D01*
X147493539Y-104387615D01*
X147455039Y-104348397D01*
X147454157Y-104346967D01*
X147433912Y-104314144D01*
X147309856Y-104190088D01*
X147217088Y-104132869D01*
X147160536Y-104097987D01*
X147160531Y-104097985D01*
X147159062Y-104097498D01*
X146993997Y-104042801D01*
X146993995Y-104042800D01*
X146891210Y-104032300D01*
X145841198Y-104032300D01*
X145841180Y-104032301D01*
X145738403Y-104042800D01*
X145738400Y-104042801D01*
X145571868Y-104097985D01*
X145571863Y-104097987D01*
X145422542Y-104190089D01*
X145298485Y-104314146D01*
X145296988Y-104316575D01*
X145295526Y-104317889D01*
X145294007Y-104319811D01*
X145293678Y-104319551D01*
X145245038Y-104363298D01*
X145176075Y-104374517D01*
X145111994Y-104346671D01*
X145073140Y-104288600D01*
X145069834Y-104275664D01*
X145067138Y-104262110D01*
X145067137Y-104262103D01*
X145006794Y-104116421D01*
X144943797Y-104022139D01*
X144922920Y-103955463D01*
X144922900Y-103953250D01*
X144922900Y-98998394D01*
X144920436Y-98986008D01*
X144898863Y-98877549D01*
X144884772Y-98843531D01*
X144851711Y-98763714D01*
X144851709Y-98763711D01*
X144851707Y-98763707D01*
X144783259Y-98661268D01*
X144752991Y-98631000D01*
X144696133Y-98574142D01*
X144696132Y-98574141D01*
X144361627Y-98239637D01*
X144361626Y-98239635D01*
X144030502Y-97908511D01*
X143675778Y-97553788D01*
X143642294Y-97492466D01*
X143647278Y-97422775D01*
X143689149Y-97366841D01*
X143754614Y-97342424D01*
X143822887Y-97357276D01*
X143828556Y-97360569D01*
X143833071Y-97363354D01*
X143833080Y-97363358D01*
X143999502Y-97418505D01*
X143999509Y-97418506D01*
X144102219Y-97428999D01*
X144352199Y-97428999D01*
X144852200Y-97428999D01*
X145102172Y-97428999D01*
X145102186Y-97428998D01*
X145204897Y-97418505D01*
X145371319Y-97363358D01*
X145371324Y-97363356D01*
X145520545Y-97271315D01*
X145644515Y-97147345D01*
X145736556Y-96998124D01*
X145736558Y-96998119D01*
X145791705Y-96831697D01*
X145791706Y-96831690D01*
X145802199Y-96728986D01*
X145802200Y-96728973D01*
X145802200Y-96666500D01*
X144852200Y-96666500D01*
X144852200Y-97428999D01*
X144352199Y-97428999D01*
X144352200Y-97428998D01*
X144352200Y-96666500D01*
X143402201Y-96666500D01*
X143402201Y-96728986D01*
X143412694Y-96831697D01*
X143467841Y-96998119D01*
X143467847Y-96998132D01*
X143470632Y-97002647D01*
X143489069Y-97070041D01*
X143468143Y-97136703D01*
X143414498Y-97181469D01*
X143345167Y-97190127D01*
X143282161Y-97159927D01*
X143277425Y-97155434D01*
X142915370Y-96793380D01*
X142881886Y-96732058D01*
X142886870Y-96662366D01*
X142899951Y-96636809D01*
X142904711Y-96629686D01*
X142951863Y-96515852D01*
X142975900Y-96395007D01*
X142975900Y-96271794D01*
X142975900Y-93341594D01*
X142951863Y-93220748D01*
X142917045Y-93136691D01*
X142904712Y-93106915D01*
X142876181Y-93064216D01*
X142873401Y-93060056D01*
X142873397Y-93060048D01*
X142836261Y-93004471D01*
X142836255Y-93004463D01*
X142746037Y-92914245D01*
X142746006Y-92914216D01*
X142493400Y-92661610D01*
X142486479Y-92648935D01*
X142475714Y-92639304D01*
X142470068Y-92618881D01*
X142459915Y-92600287D01*
X142460945Y-92585880D01*
X142457097Y-92571960D01*
X142463387Y-92551729D01*
X142464899Y-92530595D01*
X142473941Y-92517790D01*
X142477843Y-92505242D01*
X142494800Y-92488251D01*
X142501376Y-92478939D01*
X142506555Y-92474593D01*
X142510011Y-92472284D01*
X142561235Y-92438058D01*
X142619313Y-92379979D01*
X142623452Y-92376507D01*
X142650694Y-92364584D01*
X142676797Y-92350331D01*
X142682355Y-92350728D01*
X142687461Y-92348494D01*
X142716822Y-92353192D01*
X142746489Y-92355314D01*
X142750951Y-92358654D01*
X142756453Y-92359535D01*
X142778614Y-92379362D01*
X142802423Y-92397185D01*
X142806259Y-92402606D01*
X142878210Y-92510288D01*
X142878213Y-92510292D01*
X142989707Y-92621786D01*
X142989711Y-92621789D01*
X143120814Y-92709390D01*
X143120827Y-92709397D01*
X143205157Y-92744327D01*
X143266503Y-92769737D01*
X143315012Y-92779386D01*
X143376922Y-92811770D01*
X143411496Y-92872486D01*
X143414178Y-92888401D01*
X143423801Y-92982597D01*
X143423801Y-92982599D01*
X143463599Y-93102699D01*
X143478986Y-93149134D01*
X143534531Y-93239188D01*
X143571089Y-93298457D01*
X143695144Y-93422512D01*
X143772594Y-93470283D01*
X143819319Y-93522231D01*
X143830542Y-93591193D01*
X143802699Y-93655275D01*
X143772595Y-93681360D01*
X143683547Y-93736285D01*
X143683543Y-93736288D01*
X143559489Y-93860342D01*
X143467387Y-94009663D01*
X143467385Y-94009668D01*
X143445012Y-94077185D01*
X143412201Y-94176203D01*
X143412201Y-94176204D01*
X143412200Y-94176204D01*
X143401700Y-94278983D01*
X143401700Y-94904001D01*
X143401701Y-94904019D01*
X143412200Y-95006796D01*
X143412201Y-95006799D01*
X143467385Y-95173331D01*
X143467387Y-95173336D01*
X143559489Y-95322657D01*
X143653504Y-95416672D01*
X143686989Y-95477995D01*
X143682005Y-95547687D01*
X143653505Y-95592034D01*
X143559882Y-95685657D01*
X143467843Y-95834875D01*
X143467841Y-95834880D01*
X143412694Y-96001302D01*
X143412693Y-96001309D01*
X143402200Y-96104013D01*
X143402200Y-96166500D01*
X145802199Y-96166500D01*
X145802199Y-96104028D01*
X145802198Y-96104013D01*
X145791705Y-96001302D01*
X145736558Y-95834880D01*
X145736556Y-95834875D01*
X145644515Y-95685654D01*
X145550895Y-95592034D01*
X145517410Y-95530711D01*
X145522394Y-95461019D01*
X145550891Y-95416676D01*
X145644912Y-95322656D01*
X145737014Y-95173334D01*
X145792199Y-95006797D01*
X145802700Y-94904009D01*
X145802699Y-94326952D01*
X145822383Y-94259914D01*
X145839012Y-94239278D01*
X145898658Y-94179633D01*
X145967112Y-94077185D01*
X146014263Y-93963351D01*
X146015425Y-93957512D01*
X146029041Y-93889057D01*
X146038301Y-93842506D01*
X146038301Y-93719293D01*
X146038300Y-93719287D01*
X146038300Y-91770680D01*
X146034690Y-91752533D01*
X146014263Y-91649834D01*
X146006790Y-91631794D01*
X146004471Y-91621734D01*
X146005013Y-91612541D01*
X146001300Y-91593872D01*
X146001300Y-91179800D01*
X146001299Y-91179799D01*
X145938828Y-91179800D01*
X145938811Y-91179801D01*
X145836102Y-91190294D01*
X145772976Y-91211212D01*
X145757409Y-91211747D01*
X145742818Y-91217190D01*
X145723207Y-91212923D01*
X145703147Y-91213614D01*
X145688821Y-91205443D01*
X145674545Y-91202338D01*
X145646293Y-91181188D01*
X145477172Y-91012068D01*
X145443688Y-90950746D01*
X145448672Y-90881054D01*
X145477173Y-90836707D01*
X145887181Y-90426699D01*
X146331615Y-89982265D01*
X146359113Y-89934636D01*
X146409680Y-89886421D01*
X146478287Y-89873198D01*
X146543152Y-89899166D01*
G37*
%TD.AperFunction*%
%TA.AperFunction,Conductor*%
G36*
X154296703Y-92970029D02*
G01*
X154303181Y-92976061D01*
X156217111Y-94889991D01*
X156250596Y-94951314D01*
X156247362Y-95015988D01*
X156224953Y-95084957D01*
X156191700Y-95294913D01*
X156191700Y-95507486D01*
X156219919Y-95685657D01*
X156224954Y-95717443D01*
X156288277Y-95912331D01*
X156290644Y-95919614D01*
X156387151Y-96109020D01*
X156512090Y-96280986D01*
X156662413Y-96431309D01*
X156834379Y-96556248D01*
X156834381Y-96556249D01*
X156834384Y-96556251D01*
X157023788Y-96652757D01*
X157225957Y-96718446D01*
X157435913Y-96751700D01*
X157435914Y-96751700D01*
X157618457Y-96751700D01*
X157685496Y-96771385D01*
X157731251Y-96824189D01*
X157741195Y-96893347D01*
X157712170Y-96956903D01*
X157706138Y-96963381D01*
X152122995Y-102546523D01*
X152061672Y-102580008D01*
X152011126Y-102580460D01*
X151996243Y-102577500D01*
X151996242Y-102577500D01*
X151838558Y-102577500D01*
X151838555Y-102577500D01*
X151683910Y-102608261D01*
X151683898Y-102608264D01*
X151538227Y-102668602D01*
X151538214Y-102668609D01*
X151407111Y-102756210D01*
X151407106Y-102756214D01*
X151357485Y-102805835D01*
X151349540Y-102810173D01*
X151344115Y-102817420D01*
X151319354Y-102826655D01*
X151296162Y-102839319D01*
X151287133Y-102838673D01*
X151278651Y-102841837D01*
X151252827Y-102836219D01*
X151226470Y-102834334D01*
X151217417Y-102828516D01*
X151210378Y-102826985D01*
X151182124Y-102805834D01*
X151090011Y-102713721D01*
X151056526Y-102652398D01*
X151061510Y-102582706D01*
X151090009Y-102538361D01*
X153976515Y-99651857D01*
X153998192Y-99614311D01*
X154052281Y-99520627D01*
X154091500Y-99374258D01*
X154091500Y-93063742D01*
X154111185Y-92996703D01*
X154163989Y-92950948D01*
X154233147Y-92941004D01*
X154296703Y-92970029D01*
G37*
%TD.AperFunction*%
%TA.AperFunction,Conductor*%
G36*
X139000187Y-88645185D02*
G01*
X139020824Y-88661814D01*
X139223067Y-88864058D01*
X139223070Y-88864060D01*
X139223071Y-88864061D01*
X139285265Y-88905618D01*
X139330071Y-88959230D01*
X139338778Y-89028555D01*
X139319478Y-89077610D01*
X139290608Y-89120816D01*
X139290602Y-89120827D01*
X139230264Y-89266498D01*
X139230261Y-89266510D01*
X139199500Y-89421153D01*
X139199500Y-89578846D01*
X139230261Y-89733489D01*
X139230264Y-89733501D01*
X139290602Y-89879172D01*
X139290609Y-89879185D01*
X139378210Y-90010288D01*
X139378213Y-90010292D01*
X139489707Y-90121786D01*
X139489711Y-90121789D01*
X139551990Y-90163402D01*
X139596795Y-90217012D01*
X139607100Y-90266504D01*
X139607100Y-91258365D01*
X139646319Y-91404736D01*
X139662957Y-91433553D01*
X139722085Y-91535965D01*
X139991685Y-91805565D01*
X140098835Y-91912715D01*
X140186901Y-91963560D01*
X140193064Y-91970024D01*
X140201367Y-91973330D01*
X140216804Y-91994922D01*
X140235115Y-92014126D01*
X140237877Y-92024396D01*
X140242003Y-92030167D01*
X140246362Y-92055943D01*
X140248748Y-92064811D01*
X140248900Y-92067889D01*
X140248901Y-92135072D01*
X140255072Y-92192484D01*
X140255250Y-92196064D01*
X140254692Y-92198383D01*
X140254692Y-92215452D01*
X140248900Y-92269330D01*
X140248900Y-92635069D01*
X140248901Y-92635076D01*
X140253348Y-92676444D01*
X140254022Y-92692699D01*
X140253897Y-92697843D01*
X140248900Y-92744327D01*
X140248900Y-92904215D01*
X140248864Y-92905702D01*
X140238646Y-92937620D01*
X140229215Y-92969739D01*
X140228037Y-92970759D01*
X140227562Y-92972245D01*
X140201708Y-92993573D01*
X140176411Y-93015494D01*
X140174681Y-93015870D01*
X140173666Y-93016708D01*
X140167396Y-93017455D01*
X140124900Y-93026700D01*
X140076925Y-93026700D01*
X139952470Y-93060048D01*
X139936911Y-93064217D01*
X139811388Y-93136688D01*
X139811382Y-93136693D01*
X139708893Y-93239182D01*
X139708888Y-93239188D01*
X139636417Y-93364711D01*
X139636416Y-93364715D01*
X139598900Y-93504725D01*
X139598900Y-93899675D01*
X139636416Y-94039685D01*
X139636417Y-94039687D01*
X139637784Y-94044788D01*
X139636121Y-94114638D01*
X139605691Y-94164563D01*
X139497222Y-94273032D01*
X139390834Y-94419465D01*
X139308652Y-94580752D01*
X139308650Y-94580758D01*
X139252718Y-94752904D01*
X139252715Y-94752914D01*
X139249661Y-94772200D01*
X140207412Y-94772200D01*
X140190195Y-94782140D01*
X140134340Y-94837995D01*
X140094844Y-94906404D01*
X140074400Y-94982704D01*
X140074400Y-95061696D01*
X140094844Y-95137996D01*
X140134340Y-95206405D01*
X140190195Y-95262260D01*
X140207412Y-95272200D01*
X139249661Y-95272200D01*
X139252715Y-95291485D01*
X139252718Y-95291495D01*
X139308650Y-95463641D01*
X139308652Y-95463647D01*
X139390834Y-95624934D01*
X139497223Y-95771369D01*
X139611873Y-95886019D01*
X139645358Y-95947342D01*
X139640374Y-96017034D01*
X139598502Y-96072967D01*
X139533038Y-96097384D01*
X139524192Y-96097700D01*
X138549608Y-96097700D01*
X138482569Y-96078015D01*
X138436814Y-96025211D01*
X138426870Y-95956053D01*
X138455895Y-95892497D01*
X138461927Y-95886019D01*
X138576572Y-95771373D01*
X138576576Y-95771369D01*
X138682965Y-95624934D01*
X138765147Y-95463647D01*
X138765149Y-95463641D01*
X138821081Y-95291495D01*
X138821084Y-95291485D01*
X138824139Y-95272200D01*
X137866388Y-95272200D01*
X137883605Y-95262260D01*
X137939460Y-95206405D01*
X137978956Y-95137996D01*
X137999400Y-95061696D01*
X137999400Y-94982704D01*
X137978956Y-94906404D01*
X137939460Y-94837995D01*
X137883605Y-94782140D01*
X137866388Y-94772200D01*
X138824139Y-94772200D01*
X138821084Y-94752914D01*
X138821081Y-94752904D01*
X138765149Y-94580758D01*
X138765147Y-94580752D01*
X138682965Y-94419465D01*
X138576576Y-94273030D01*
X138448569Y-94145023D01*
X138302134Y-94038634D01*
X138140847Y-93956452D01*
X138140844Y-93956451D01*
X137968693Y-93900517D01*
X137789906Y-93872200D01*
X137299400Y-93872200D01*
X137299400Y-94722200D01*
X136799400Y-94722200D01*
X136799400Y-93872200D01*
X136308899Y-93872200D01*
X136192297Y-93890667D01*
X136123004Y-93881711D01*
X136069552Y-93836714D01*
X136048913Y-93769963D01*
X136048900Y-93768193D01*
X136048900Y-93226699D01*
X136068585Y-93159660D01*
X136121389Y-93113905D01*
X136172900Y-93102699D01*
X138097271Y-93102699D01*
X138097272Y-93102699D01*
X138156883Y-93096291D01*
X138291731Y-93045996D01*
X138406946Y-92959746D01*
X138493196Y-92844531D01*
X138543491Y-92709683D01*
X138549900Y-92650073D01*
X138549899Y-91554328D01*
X138543491Y-91494717D01*
X138520678Y-91433553D01*
X138493197Y-91359871D01*
X138493193Y-91359864D01*
X138406947Y-91244655D01*
X138406944Y-91244652D01*
X138291735Y-91158406D01*
X138291728Y-91158402D01*
X138156882Y-91108108D01*
X138156883Y-91108108D01*
X138097283Y-91101701D01*
X138097281Y-91101700D01*
X138097273Y-91101700D01*
X138097265Y-91101700D01*
X136172900Y-91101700D01*
X136105861Y-91082015D01*
X136060106Y-91029211D01*
X136048900Y-90977700D01*
X136048900Y-90426699D01*
X136068585Y-90359660D01*
X136121389Y-90313905D01*
X136172900Y-90302699D01*
X138097271Y-90302699D01*
X138097272Y-90302699D01*
X138156883Y-90296291D01*
X138291731Y-90245996D01*
X138406946Y-90159746D01*
X138493196Y-90044531D01*
X138543491Y-89909683D01*
X138549900Y-89850073D01*
X138549899Y-88754328D01*
X138549899Y-88751007D01*
X138551213Y-88751007D01*
X138566055Y-88688156D01*
X138616327Y-88639633D01*
X138673818Y-88625500D01*
X138933148Y-88625500D01*
X139000187Y-88645185D01*
G37*
%TD.AperFunction*%
%TA.AperFunction,Conductor*%
G36*
X141442439Y-93832384D02*
G01*
X141488194Y-93885188D01*
X141499400Y-93936699D01*
X141499400Y-94568200D01*
X141479715Y-94635239D01*
X141426911Y-94680994D01*
X141375400Y-94692200D01*
X141123400Y-94692200D01*
X141056361Y-94672515D01*
X141010606Y-94619711D01*
X140999400Y-94568200D01*
X140999400Y-94052200D01*
X140971580Y-94024380D01*
X140938095Y-93963057D01*
X140943079Y-93893365D01*
X140984951Y-93837432D01*
X141050415Y-93813015D01*
X141059242Y-93812699D01*
X141375401Y-93812699D01*
X141442439Y-93832384D01*
G37*
%TD.AperFunction*%
%TA.AperFunction,Conductor*%
G36*
X143135943Y-85335085D02*
G01*
X143181698Y-85387889D01*
X143187980Y-85404805D01*
X143219353Y-85512793D01*
X143219355Y-85512796D01*
X143219356Y-85512798D01*
X143303019Y-85654265D01*
X143359282Y-85710528D01*
X143373988Y-85737459D01*
X143390577Y-85763273D01*
X143391468Y-85769472D01*
X143392766Y-85771849D01*
X143395600Y-85798208D01*
X143395600Y-85956591D01*
X143375915Y-86023630D01*
X143359281Y-86044272D01*
X143303023Y-86100529D01*
X143303017Y-86100537D01*
X143219355Y-86242003D01*
X143219354Y-86242006D01*
X143173502Y-86399826D01*
X143173501Y-86399832D01*
X143170600Y-86436698D01*
X143170600Y-87593101D01*
X143173501Y-87629967D01*
X143173502Y-87629973D01*
X143214106Y-87769731D01*
X143214068Y-87783024D01*
X143218714Y-87795480D01*
X143213970Y-87817285D01*
X143213907Y-87839601D01*
X143206356Y-87852284D01*
X143203862Y-87863753D01*
X143182711Y-87892007D01*
X143082006Y-87992712D01*
X143020683Y-88026197D01*
X142950991Y-88021213D01*
X142895058Y-87979341D01*
X142879765Y-87952486D01*
X142873194Y-87936621D01*
X142873191Y-87936616D01*
X142873190Y-87936614D01*
X142785589Y-87805511D01*
X142785586Y-87805507D01*
X142674092Y-87694013D01*
X142674088Y-87694010D01*
X142542985Y-87606409D01*
X142542972Y-87606402D01*
X142397301Y-87546064D01*
X142397291Y-87546061D01*
X142349208Y-87536497D01*
X142324299Y-87523467D01*
X142298067Y-87513373D01*
X142293758Y-87507492D01*
X142287297Y-87504112D01*
X142273386Y-87479684D01*
X142256776Y-87457010D01*
X142255133Y-87447629D01*
X142252723Y-87443396D01*
X142249631Y-87422446D01*
X142236085Y-87200862D01*
X142239915Y-87184090D01*
X142238689Y-87166934D01*
X142249182Y-87143515D01*
X142251642Y-87132747D01*
X142255858Y-87128616D01*
X142259536Y-87120410D01*
X142357967Y-86984931D01*
X142440147Y-86823647D01*
X142440149Y-86823641D01*
X142496081Y-86651495D01*
X142496084Y-86651485D01*
X142499139Y-86632200D01*
X141541388Y-86632200D01*
X141558605Y-86622260D01*
X141614460Y-86566405D01*
X141653956Y-86497996D01*
X141674400Y-86421696D01*
X141674400Y-86342704D01*
X141653956Y-86266404D01*
X141614460Y-86197995D01*
X141558605Y-86142140D01*
X141541388Y-86132200D01*
X142499139Y-86132200D01*
X142496084Y-86112914D01*
X142496081Y-86112904D01*
X142440149Y-85940758D01*
X142440147Y-85940752D01*
X142357965Y-85779465D01*
X142251576Y-85633030D01*
X142145627Y-85527081D01*
X142112142Y-85465758D01*
X142117126Y-85396066D01*
X142158998Y-85340133D01*
X142224462Y-85315716D01*
X142233308Y-85315400D01*
X143068904Y-85315400D01*
X143135943Y-85335085D01*
G37*
%TD.AperFunction*%
%TD*%
M02*
